<svg xmlns="http://www.w3.org/2000/svg" width="624.96" height="460" viewBox="0 0 624.96 460">
    <defs>
        <style>
            .prefix__cls-1{fill:#eaedf6}.prefix__cls-2{fill:#fff}.prefix__cls-5{fill:#afe1f0}.prefix__cls-6{fill:#def8fa}.prefix__cls-9{fill:#00b8fb}.prefix__cls-13,.prefix__cls-21,.prefix__cls-29,.prefix__cls-31,.prefix__cls-32,.prefix__cls-35,.prefix__cls-47,.prefix__cls-48,.prefix__cls-9{fill-rule:evenodd}.prefix__cls-13{fill:#f98f6e}.prefix__cls-15{fill:#f7b690}.prefix__cls-16{fill:#504acc}.prefix__cls-17{fill:#d5e5fd}.prefix__cls-18{fill:#6c5ce6}.prefix__cls-21,.prefix__cls-57{fill:#222b56}.prefix__cls-22{fill:#f4a086}.prefix__cls-23{fill:#255880}.prefix__cls-25{fill:#616d7d}.prefix__cls-26{fill:#496391}.prefix__cls-27{fill:#7eb0ed}.prefix__cls-28{fill:#cc346f}.prefix__cls-29{fill:#fdd247}.prefix__cls-30{fill:#70a0fe}.prefix__cls-31{fill:#818bea}.prefix__cls-32{fill:#66bcd5}.prefix__cls-33{fill:#a2afd7}.prefix__cls-34{fill:#c7cfe7}.prefix__cls-35{fill:#0a3c5f}.prefix__cls-38{fill:#7ed5de}.prefix__cls-41{fill:#1b2377}.prefix__cls-43{fill:#488fb4}.prefix__cls-44{fill:#222b54}.prefix__cls-46{fill:#1b546d}.prefix__cls-47{fill:#112f41}.prefix__cls-48{fill:#192540}.prefix__cls-50,.prefix__cls-52,.prefix__cls-59{fill:none;stroke-miterlimit:10}.prefix__cls-50{stroke:#222b56;stroke-width:1.5px}.prefix__cls-52{stroke:#312d7f}.prefix__cls-58{fill:#a29ee5}.prefix__cls-59{stroke:#7878c4;stroke-width:1.224px}.prefix__cls-60{fill:#d6d4ff}.prefix__cls-62{fill:#9fbdf9}
        </style>
    </defs>
    <g id="prefix__Group_5433" data-name="Group 5433" transform="translate(-26.486 -33.941)">
        <path id="prefix__Path_6508" d="M575.342 87.937c-18.134-13.158-35.025-27.772-64.615-37.431C455.329 32.422 396.866 26.532 340.2 46.2c-21.893 7.6-42.543 18.588-63.588 28.474a759.827 759.827 0 0 1-111.1 41.632c-17.734 5.155-35.3 11.444-51.53 20.536-21.362 11.968-51.934 28.979-68.238 59.769C-7.72 297.565 65.488 358.492 80.766 373.5c17.49 17.178 54.472 17.567 76.9 24.629 37.745 11.887 78.353 9.607 116.923 4.039 23.237-3.355 46.344-7.828 69.71-9.99 25.375-2.348 50.9-1.956 76.371-1.561l83.248 1.289c17.477.271 35.067.533 52.306-2.486 22.417-3.925 72.865-27.39 88.263-83.718 10.836-39.642 8.539-82.565-3.546-121.685-11.299-36.566-28.159-68.917-65.599-96.08z" class="prefix__cls-1" data-name="Path 6508"/>
        <g id="prefix__Group_5344" data-name="Group 5344" transform="translate(127.962 156.978)">
            <g id="prefix__Group_5341" data-name="Group 5341">
                <g id="prefix__Group_5339" data-name="Group 5339" transform="translate(23.562 3.891)">
                    <path id="prefix__Path_6510" d="M228.421 261.11l9.156-22.137.785.311-9.156 22.137z" class="prefix__cls-2" data-name="Path 6510" transform="translate(-228.421 -238.973)"/>
                </g>
                <g id="prefix__Group_5340" data-name="Group 5340">
                    <path id="prefix__Path_6511" d="M210.45 247.049l-19.537-14.355-.508.661 19.537 14.355z" class="prefix__cls-2" data-name="Path 6511" transform="translate(-190.404 -232.694)"/>
                </g>
            </g>
            <g id="prefix__Group_5343" data-name="Group 5343" transform="translate(2.879 14.127)">
                <g id="prefix__Group_5342" data-name="Group 5342">
                    <path id="prefix__Path_6512" d="M196.087 279.384l-1.037-23.862.845-.035 1.037 23.862z" class="prefix__cls-2" data-name="Path 6512" transform="translate(-195.05 -255.487)"/>
                </g>
            </g>
        </g>
        <g id="prefix__Group_5358" data-name="Group 5358" transform="translate(109.283 114.287)">
            <rect id="prefix__Rectangle_2455" width="413.373" height="251.248" data-name="Rectangle 2455" rx="17.828" transform="translate(0 37.886)" style="fill:#363e44"/>
            <rect id="prefix__Rectangle_2456" width="413.373" height="251.248" data-name="Rectangle 2456" rx="17.828" transform="translate(0 30.985)" style="fill:#596475"/>
            <path id="prefix__Rectangle_2457" d="M0 0H219.019V386.894H0z" class="prefix__cls-1" data-name="Rectangle 2457" transform="rotate(90 176.516 223.617)"/>
            <path id="prefix__Rectangle_2458" d="M0 0H386.894V3.866H0z" class="prefix__cls-5" data-name="Rectangle 2458" transform="translate(13.24 166.07)"/>
            <g id="prefix__Group_5347" data-name="Group 5347" transform="translate(31.337 174.811)">
                <rect id="prefix__Rectangle_2459" width="27.777" height="27.777" class="prefix__cls-6" data-name="Rectangle 2459" rx="9.759"/>
                <path id="prefix__Path_6513" d="M210.642 503.854v4.769H255.5v-4.769zm0 13.717H255.5V512.8h-44.858zm0 8.947H255.5v-4.77h-44.858zm0 8.947H255.5V530.7h-44.858zm0 8.947h21.916v-4.769h-21.916z" class="prefix__cls-5" data-name="Path 6513" transform="translate(-210.642 -468.005)"/>
                <g id="prefix__Group_5345" data-name="Group 5345" transform="translate(59.851)">
                    <rect id="prefix__Rectangle_2460" width="27.777" height="27.777" class="prefix__cls-6" data-name="Rectangle 2460" rx="9.759"/>
                    <path id="prefix__Path_6514" d="M307.211 503.854v4.769h44.861v-4.769zm0 13.717h44.861V512.8h-44.861zm0 8.947h44.861v-4.77h-44.861zm0 8.947h44.861V530.7h-44.861zm0 8.947h21.916v-4.769h-21.916z" class="prefix__cls-5" data-name="Path 6514" transform="translate(-307.211 -468.005)"/>
                </g>
                <g id="prefix__Group_5346" data-name="Group 5346" transform="translate(119.701)">
                    <rect id="prefix__Rectangle_2461" width="27.777" height="27.777" data-name="Rectangle 2461" rx="9.759" style="fill:#fdc957"/>
                    <path id="prefix__Path_6515" d="M403.78 503.854v4.769h44.862v-4.769zm0 13.717h44.862V512.8H403.78zm0 8.947h44.862v-4.77H403.78zm0 8.947h44.862V530.7H403.78zm0 8.947h21.92v-4.769h-21.92z" class="prefix__cls-5" data-name="Path 6515" transform="translate(-403.78 -468.005)"/>
                </g>
            </g>
            <g id="prefix__Group_5350" data-name="Group 5350" transform="translate(210.568 181.888)">
                <g id="prefix__Group_5348" data-name="Group 5348" transform="translate(0 40.209)">
                    <circle id="prefix__Ellipse_40" cx="15.03" cy="15.03" r="15.03" class="prefix__cls-2" data-name="Ellipse 40"/>
                    <path id="prefix__Path_6516" d="M524.081 522.309v15.029h15.03a15.029 15.029 0 0 0-15.03-15.029z" data-name="Path 6516" transform="translate(-509.051 -522.309)" style="fill:#65d4c9"/>
                </g>
                <path id="prefix__Path_6517" d="M554.677 464.168v2.553h43.712v-2.553zm0 7.342h43.712v-2.553h-43.712zm0 4.789h43.712v-2.553h-43.712zm0 4.789h43.712v-2.553h-43.712zm0 4.79h26.115v-2.553h-26.115z" class="prefix__cls-5" data-name="Path 6517" transform="translate(-520.685 -459.993)"/>
                <path id="prefix__Path_6518" d="M554.677 529.045v2.555h43.712v-2.553zm0 7.342h43.712v-2.553h-43.712zm0 4.789h43.712v-2.553h-43.712zm0 4.789h43.712v-2.553h-43.712zm0 4.789h26.115V548.2h-26.115z" class="prefix__cls-5" data-name="Path 6518" transform="translate(-520.685 -484.661)"/>
                <g id="prefix__Group_5349" data-name="Group 5349">
                    <circle id="prefix__Ellipse_41" cx="15.03" cy="15.03" r="15.03" class="prefix__cls-2" data-name="Ellipse 41"/>
                    <path id="prefix__Path_6519" d="M524.081 457.432v15.029h15.03a15.029 15.029 0 0 0-15.03-15.029z" class="prefix__cls-9" data-name="Path 6519" transform="translate(-509.051 -457.432)"/>
                </g>
            </g>
            <g id="prefix__Group_5353" data-name="Group 5353" transform="translate(302.054 181.888)">
                <g id="prefix__Group_5351" data-name="Group 5351" transform="translate(0 40.209)">
                    <circle id="prefix__Ellipse_42" cx="15.03" cy="15.03" r="15.03" class="prefix__cls-6" data-name="Ellipse 42"/>
                    <path id="prefix__Path_6520" d="M671.693 522.309v15.029h15.029a15.029 15.029 0 0 0-15.029-15.029z" class="prefix__cls-5" data-name="Path 6520" transform="translate(-656.663 -522.309)"/>
                </g>
                <path id="prefix__Path_6521" d="M702.289 464.168v2.553H746v-2.553zm0 7.342H746v-2.553h-43.711zm0 4.789H746v-2.553h-43.711zm0 4.789H746v-2.553h-43.711zm0 4.79H728.4v-2.553h-26.111z" class="prefix__cls-5" data-name="Path 6521" transform="translate(-668.297 -459.993)"/>
                <path id="prefix__Path_6522" d="M702.289 529.045v2.555H746v-2.553zm0 7.342H746v-2.553h-43.711zm0 4.789H746v-2.553h-43.711zm0 4.789H746v-2.553h-43.711zm0 4.789H728.4V548.2h-26.111z" class="prefix__cls-5" data-name="Path 6522" transform="translate(-668.297 -484.661)"/>
                <g id="prefix__Group_5352" data-name="Group 5352">
                    <circle id="prefix__Ellipse_43" cx="15.029" cy="15.029" r="15.029" class="prefix__cls-5" data-name="Ellipse 43"/>
                    <path id="prefix__Path_6523" d="M671.693 457.432v15.029h15.029a15.029 15.029 0 0 0-15.029-15.029z" data-name="Path 6523" transform="translate(-656.663 -457.432)" style="fill-rule:evenodd;fill:#def8fa"/>
                </g>
            </g>
            <g id="prefix__Group_5356" data-name="Group 5356" transform="translate(171.348)">
                <rect id="prefix__Rectangle_2462" width="179.066" height="173.055" data-name="Rectangle 2462" rx="17.93" transform="rotate(180 89.533 94.519)" style="fill:#41596d;opacity:.2;mix-blend-mode:multiply;isolation:isolate"/>
                <rect id="prefix__Rectangle_2463" width="179.066" height="173.055" data-name="Rectangle 2463" rx="17.93" transform="rotate(180 89.533 86.528)" style="fill:#f3fbff"/>
                <g id="prefix__Group_5354" data-name="Group 5354" transform="translate(33.632 14.698)">
                    <rect id="prefix__Rectangle_2464" width="16.699" height="4.274" class="prefix__cls-5" data-name="Rectangle 2464" rx="2.137"/>
                    <rect id="prefix__Rectangle_2465" width="16.699" height="4.274" class="prefix__cls-5" data-name="Rectangle 2465" rx="2.137" transform="translate(20.302)"/>
                    <rect id="prefix__Rectangle_2466" width="16.699" height="4.274" class="prefix__cls-5" data-name="Rectangle 2466" rx="2.137" transform="translate(40.603)"/>
                    <rect id="prefix__Rectangle_2467" width="16.699" height="4.274" class="prefix__cls-5" data-name="Rectangle 2467" rx="2.137" transform="translate(60.905)"/>
                    <rect id="prefix__Rectangle_2468" width="16.699" height="4.274" class="prefix__cls-5" data-name="Rectangle 2468" rx="2.137" transform="translate(81.207)"/>
                    <rect id="prefix__Rectangle_2469" width="16.699" height="4.274" class="prefix__cls-5" data-name="Rectangle 2469" rx="2.137" transform="translate(101.508)"/>
                </g>
                <g id="prefix__Group_5355" data-name="Group 5355" transform="translate(16.973 124.728)">
                    <path id="prefix__Path_6524" d="M464.911 398.408l-.976-.976 20.472-20.473a6.256 6.256 0 0 1 8.837 0l5.057 5.056a4.868 4.868 0 0 0 6.885 0 6.255 6.255 0 0 1 8.837 0l7.41 7.41a4.875 4.875 0 0 0 6.885 0l22.394-22.394a6.255 6.255 0 0 1 8.837 0l10.533 10.534a4.876 4.876 0 0 0 6.886 0l3.875-3.874a6.247 6.247 0 0 1 8.837 0l14.7 14.7-.976.975-14.7-14.7a4.868 4.868 0 0 0-6.885 0l-3.874 3.875a6.259 6.259 0 0 1-8.837 0l-10.534-10.534a4.875 4.875 0 0 0-6.886 0L529.3 390.4a6.256 6.256 0 0 1-8.837 0l-7.41-7.411a4.875 4.875 0 0 0-6.886 0 6.248 6.248 0 0 1-8.837 0l-5.056-5.056a4.876 4.876 0 0 0-6.886 0z" class="prefix__cls-5" data-name="Path 6524" transform="translate(-463.936 -365.204)"/>
                </g>
                <rect id="prefix__Rectangle_2470" width="16.361" height="2.53" class="prefix__cls-5" data-name="Rectangle 2470" rx="1.265" transform="translate(37.16 116.94)"/>
                <rect id="prefix__Rectangle_2471" width="16.361" height="2.53" class="prefix__cls-5" data-name="Rectangle 2471" rx="1.265" transform="translate(57.852 116.94)"/>
                <rect id="prefix__Rectangle_2472" width="16.361" height="2.53" class="prefix__cls-5" data-name="Rectangle 2472" rx="1.265" transform="translate(133.426 116.94)"/>
                <path id="prefix__Path_6525" d="M612.261 363.739a3.546 3.546 0 1 1-3.546-3.546 3.545 3.545 0 0 1 3.546 3.546z" class="prefix__cls-13" data-name="Path 6525" transform="translate(-500.663 -238.571)"/>
                <path id="prefix__Path_6526" d="M691.136 401.361a3.546 3.546 0 1 1-3.546-3.546 3.546 3.546 0 0 1 3.546 3.546z" class="prefix__cls-13" data-name="Path 6526" transform="translate(-530.654 -252.876)"/>
                <path id="prefix__Path_6527" d="M504.242 380.906a3.546 3.546 0 1 1-3.546-3.546 3.545 3.545 0 0 1 3.546 3.546z" class="prefix__cls-13" data-name="Path 6527" transform="translate(-459.591 -245.098)"/>
                <circle id="prefix__Ellipse_44" cx="3.546" cy="3.546" r="3.546" data-name="Ellipse 44" transform="translate(58.737 137.194)" style="fill:#f98f6e"/>
            </g>
            <g id="prefix__Group_5357" data-name="Group 5357" transform="translate(319.905 47.398)">
                <path id="prefix__Path_6528" d="M676.246 240.432v.084c.001-.028.002-.056 0-.084z" class="prefix__cls-15" data-name="Path 6528" transform="translate(-676.246 -240.432)"/>
            </g>
        </g>
        <g id="prefix__Group_5365" data-name="Group 5365" transform="translate(95.134 131.041)">
            <path id="prefix__Path_6529" d="M375.094 406.559c3.727 2.141 8.494 3.923 12.139 1.646a8.515 8.515 0 0 0 3.612-6.325 19.8 19.8 0 0 0-.907-7.434c-5.26-19.058-48.715-71.6-55.131-73.789-8.826-3.009-14.587 33.348-12.856 38.621 1.749 5.339 35.849 37.349 53.143 47.281z" class="prefix__cls-16" data-name="Path 6529" transform="translate(-207.361 -240.219)"/>
            <path id="prefix__Path_6530" d="M450.331 330.009c1.779-2.383 4.05-5.014 7.021-4.883 2.508.111 4.533 2.317 5.23 4.728.211.732-1.617 9.212-4.053 18.477l-15.239-6.084a113.668 113.668 0 0 1 7.041-12.238z" class="prefix__cls-17" data-name="Path 6530" transform="translate(-253.615 -241.984)"/>
            <path id="prefix__Path_6531" d="M428.42 352.753l18.171 5.413c-5.592 21.259-18.879 54.785-26.27 60.875-5.34 4.4-11.219 2.523-15.394-2.056-4.534-4.971 12.642-43.432 23.493-64.232z" class="prefix__cls-16" data-name="Path 6531" transform="translate(-238.744 -252.49)"/>
            <path id="prefix__Path_6532" d="M307.619 351.387c1.1-7.541 2.7-16.835-1.711-23.356-3.956-5.851-18.021-28.678-40.829-28.678-32.514 0-51.924 22.525-59.943 32.316-3.269 19.806 3.981 43.206 9.883 62.149 5.911 18.971 2.75 68.3-3.723 87.492h94.816c-.25-17.569-.654-115.087 1.507-129.923z" class="prefix__cls-18" data-name="Path 6532" transform="translate(-162.752 -232.186)"/>
            <path id="prefix__Path_6533" d="M191.984 332.238c3.1-.926 24.954.465 19.122 16-7.238 19.287-21.705 35-33.78 51.686-3.709 5.128-7.476 10.317-12.366 14.336s-11.112 6.8-17.421 6.283c-3.3-.271-8.176-1.825-9.8-5.066-1.3-2.607.316-6.9.909-9.491 2.105-9.21 36.1-68.604 53.336-73.748z" class="prefix__cls-18" data-name="Path 6533" transform="translate(-137.249 -244.606)"/>
            <path id="prefix__Path_6534" d="M179.023 425.16a1.567 1.567 0 0 0-.048.385c.013-.129.035-.256.048-.385z" data-name="Path 6534" transform="translate(-153.115 -280.021)" style="fill:#18898d;fill-rule:evenodd"/>
            <path id="prefix__Path_6535" d="M241.081 531.731c.3 3.21-6.079 6.11-9.223 6.823-.909.206-5.576-4.451-12.123-8.99l9.991-10.217c4.663 5.827 11.293 11.728 11.355 12.384z" class="prefix__cls-17" data-name="Path 6535" transform="translate(-168.613 -315.834)"/>
            <path id="prefix__Path_6536" d="M305.18 412.965c-4.122-21.852-8.336-43.641-13.267-63.428-4.664-18.711-8.768-33.824-22.912-46.111 11.683-9.121 18.859-15.124 28.874-3.209 12.357 14.7 14.506 48.433 13.953 66.06-.441 13.989-4.488 46.712-6.648 46.688z" data-name="Path 6536" transform="translate(-187.345 -229.988)" style="fill:#acccfd"/>
            <path id="prefix__Path_6537" d="M137.467 454.15c.827-2.964 3.862-4.71 6.754-5.763 4.857-1.768 10.96-2.965 16.113-1.927 3.554.716 4.653 3.947 6.684 6.551 5.083 6.518 24.958 30.154 34.91 42.6L191.039 509.3c-16.089-11.157-45.314-39.4-50.2-45.79-2.099-2.736-4.298-6.042-3.372-9.36z" class="prefix__cls-18" data-name="Path 6537" transform="translate(-137.249 -287.974)"/>
            <g id="prefix__Group_5359" data-name="Group 5359" transform="translate(75.435)">
                <path id="prefix__Path_6538" d="M286.5 202.254c-2.509-2.52-19.845-9.121-25.426 3.39a31.176 31.176 0 0 0-1.65 16.446c1.349 6.181 2.7 17.931 16.041 26.9 4.234 1.01-4.058 2.228-.662-.5a14.575 14.575 0 0 0 5.37-11.412c-.075-4.918-2.654-9.858-1.257-14.574.843-2.847 3.009-5.078 5.1-7.187 1.683-1.7 4.514-3.567 4.949-5.985a8.613 8.613 0 0 0-2.465-7.078z" class="prefix__cls-21" data-name="Path 6538" transform="translate(-258.964 -193.744)"/>
                <path id="prefix__Path_6539" d="M319.792 213.1a9.144 9.144 0 0 0-2.512-5.642c-2.493-2.26-6.461-1.9-9.5-.459-1.639.777-3.319 2.118-3.329 3.932-.008 1.518 1.162 2.759 2.3 3.765 2.626 2.324 6.395 5.768 9.859 6.694 4.273 1.143 3.523-5.834 3.182-8.29z" class="prefix__cls-21" data-name="Path 6539" transform="translate(-276.259 -196.63)"/>
                <path id="prefix__Path_6540" d="M295.8 255.723c-2.228-9.83-9.665-12.133-13.99-9.773-2.771 18.4-5.6 26.578-12.808 36.614 8.966 5.749 24.275 4.679 27.584 0 .129-1.475.362-21.758-.786-26.841z" class="prefix__cls-22" data-name="Path 6540" transform="translate(-262.78 -211.556)"/>
                <path id="prefix__Path_6541" d="M282.127 219.257c4.169-9.988 17.817-12.39 25.541-3.825 8.516 9.443 7.887 28.571 5.269 33.7-4.578 8.965-20.992 5.024-24.492.327-5.124-6.882-9.824-21.804-6.318-30.202z" class="prefix__cls-15" data-name="Path 6541" transform="translate(-267.31 -198.285)"/>
                <path id="prefix__Path_6542" d="M312.841 209.932c-.173 1.593-1.908 3.117-3.569 4.654a38.463 38.463 0 0 0-1.946-3.774 3.355 3.355 0 0 0-.118-.707c-.967-3.372-3.3-8.671-7.586-6.309-1.37.756-1.878 1.9-3.545 2.287a6.8 6.8 0 0 1-5.925-1.153c-1.9-1.7-16.852-6.161-15.55-8.361s19.777-5.15 22.312-5.466c7-.874 8.2 3.055 11.583 6.216a15.074 15.074 0 0 1 4.344 12.613z" class="prefix__cls-21" data-name="Path 6542" transform="translate(-264.88 -190.979)"/>
                <path id="prefix__Path_6543" d="M271.613 251.085a9.68 9.68 0 0 0 3.968 6.074c5.844 4.026 8.074-4.377 5.778-8.532-2.738-4.955-11.019-4.167-9.746 2.458z" class="prefix__cls-15" data-name="Path 6543" transform="translate(-263.723 -211.682)"/>
                <path id="prefix__Path_6544" d="M293.565 210.6c-.045 1.89-5.074 4.961-6.458 6.249s-2.954 2.469-3.817 4.151c-1.114 2.169-.85 4.787-.229 7.144s1.574 4.652 1.771 7.082-.552 5.14-2.608 6.449c.894-2.255-.067-4.848-1.51-6.8s-3.351-3.526-4.731-5.521a13.372 13.372 0 0 1-.961-13.275c1.473-2.967 5.519-7.785 8.611-8.945 2.556-.955 10.032-.81 9.932 3.466z" class="prefix__cls-21" data-name="Path 6544" transform="translate(-264.566 -196.94)"/>
            </g>
            <path id="prefix__Path_6545" d="M298.1 312.083c.672.615 3.755 2.7 1.458-3.974-.695-2.019-3.29-9.455-4.265-9.26-.182.036-.9.629-1.412.9a16.56 16.56 0 0 1-10.058 1.513c-4.393-.623-8.486-2.536-12.474-4.482l-5.38 6.544a2.03 2.03 0 0 0-.584 1.145 1.76 1.76 0 0 0 .743 1.363c4.557 3.588 7.835 6.348 12.431 9.932 1.034.806 4.813 4.156 5.578 3.609.826-.589 4.156-10.609 5.942-13.854.005.001 4.997 3.788 8.021 6.564z" class="prefix__cls-2" data-name="Path 6545" transform="translate(-185.972 -231.208)"/>
            <g id="prefix__Group_5360" data-name="Group 5360" transform="translate(116.775 195.091)">
                <path id="prefix__Path_6546" d="M326.833 559.8c-.008-.332-.783-33.478-1.168-54.028l.69-.014c.384 20.549 1.16 53.693 1.168 54.025z" class="prefix__cls-23" data-name="Path 6546" transform="translate(-325.665 -505.758)"/>
            </g>
            <path id="prefix__Path_6547" d="M248.22 548c.566 2.9.476 6.12-1.223 8.539a9.662 9.662 0 0 1-6.646 3.7 23.513 23.513 0 0 1-7.767-.537c-1.813-.36-3.724-.835-5.014-2.16s-1.584-3.778-.122-4.911c1.729-1.341 4.565-.074 6.275-1.439s.939-4.055 1.026-6.251c.131-3.319 3.579-7.305 7.165-6.731 3.963.631 5.662 6.49 6.306 9.79z" class="prefix__cls-15" data-name="Path 6547" transform="translate(-171.174 -322.984)"/>
            <g id="prefix__Group_5362" data-name="Group 5362" transform="translate(193.848 50.029)">
                <path id="prefix__Path_6548" d="M470.236 298.657a13.255 13.255 0 0 0-14.311-7.7c-.346-6.264 4.252-22.164-1.039-18.793-2.346 1.5-6.358 22.011-4.286 33.143.685 3.68 1.883 7.5 4.709 9.956 9.424 8.186 18.152-8.808 14.927-16.606z" class="prefix__cls-15" data-name="Path 6548" transform="translate(-450.023 -271.7)"/>
                <g id="prefix__Group_5361" data-name="Group 5361" transform="translate(3.308 22.802)">
                    <path id="prefix__Path_6549" d="M462.215 329.847a.345.345 0 0 1-.119-.668 2.794 2.794 0 0 0 1.447-2.889 10.427 10.427 0 0 0-.545-2.36c-.139-.445-.283-.905-.393-1.37a10.209 10.209 0 0 1 2.278-9c.149-.169.306-.333.462-.5a7.21 7.21 0 0 0 1.04-1.269 1.967 1.967 0 0 0 .157-1.916c-.55-.906-1.982-.794-3.039-.423a11.947 11.947 0 0 0-7.463 8.206.345.345 0 1 1-.67-.165 12.654 12.654 0 0 1 7.9-8.691c1.3-.457 3.093-.544 3.859.715a2.618 2.618 0 0 1-.153 2.625 7.869 7.869 0 0 1-1.135 1.394c-.151.159-.3.317-.447.479a9.514 9.514 0 0 0-2.121 8.387c.1.442.245.89.38 1.324a11.069 11.069 0 0 1 .576 2.517 3.475 3.475 0 0 1-1.9 3.584.333.333 0 0 1-.114.02z" class="prefix__cls-22" data-name="Path 6549" transform="translate(-455.361 -308.491)"/>
                </g>
            </g>
            <g id="prefix__Group_5363" data-name="Group 5363" transform="translate(98.8 196.578)">
                <path id="prefix__Path_6550" d="M300.3 515.437a3.639 3.639 0 1 1 3.64-3.639 3.642 3.642 0 0 1-3.64 3.639zm0-6.589a2.95 2.95 0 1 0 2.95 2.95 2.953 2.953 0 0 0-2.95-2.95z" class="prefix__cls-23" data-name="Path 6550" transform="translate(-296.663 -508.158)"/>
            </g>
            <g id="prefix__Group_5364" data-name="Group 5364" transform="translate(99.986 219.693)">
                <path id="prefix__Path_6551" d="M302.216 552.732a3.639 3.639 0 1 1 3.64-3.639 3.643 3.643 0 0 1-3.64 3.639zm0-6.589a2.949 2.949 0 1 0 2.949 2.95 2.952 2.952 0 0 0-2.949-2.949z" class="prefix__cls-23" data-name="Path 6551" transform="translate(-298.577 -545.454)"/>
            </g>
            <path id="prefix__Path_6552" d="M327.638 566.5c-1.369-10.669-4.839-22.982-4.325-33.7-.559 12.692-.775 25.294-4.05 37.276h9.037c-.255-1.334-.534-2.581-.662-3.576z" class="prefix__cls-23" data-name="Path 6552" transform="translate(-206.456 -320.948)"/>
        </g>
        <path id="prefix__Path_6553" d="M141.4 503.111l3.609 16.078-11.48-11.489 1.859-6.234z" data-name="Path 6553" transform="translate(-40.701 -178.092)" style="fill:#7c1829"/>
        <g id="prefix__Group_5373" data-name="Group 5373" transform="translate(346.027 304.231)">
            <g id="prefix__Group_5367" data-name="Group 5367" transform="translate(17.16 86.267)">
                <g id="prefix__Group_5366" data-name="Group 5366">
                    <path id="prefix__Rectangle_2473" d="M0 0H101.582V2.803H0z" class="prefix__cls-5" data-name="Rectangle 2473" transform="rotate(-84.713 55.471 50.575)"/>
                </g>
            </g>
            <g id="prefix__Group_5369" data-name="Group 5369" transform="translate(60.082)">
                <path id="prefix__Path_6554" d="M695.2 588.42h17.952l8.976-20.351h-17.951z" class="prefix__cls-25" data-name="Path 6554" transform="translate(-661.047 -507.817)"/>
                <path id="prefix__Path_6555" d="M698.457 588.42h17.952l8.976-20.351h-17.952z" class="prefix__cls-26" data-name="Path 6555" transform="translate(-662.285 -507.817)"/>
                <path id="prefix__Path_6556" d="M692.049 596.621h34.459a1.328 1.328 0 0 1 1.328 1.328 1.328 1.328 0 0 1-1.328 1.328h-34.459a1.328 1.328 0 0 1-1.328-1.328 1.328 1.328 0 0 1 1.328-1.328z" class="prefix__cls-25" data-name="Path 6556" transform="translate(-659.344 -518.674)"/>
                <path id="prefix__Path_6557" d="M725.7 538.014a5.108 5.108 0 0 0 5.17-6.014l-7.794-55.129a7.175 7.175 0 0 0-6.867-6.017h-70.89a5.108 5.108 0 0 0-5.165 6.017L647.947 532a7.174 7.174 0 0 0 6.867 6.016z" class="prefix__cls-25" data-name="Path 6557" transform="translate(-640.094 -470.853)"/>
                <path id="prefix__Path_6558" d="M731 538.014a5.107 5.107 0 0 0 5.162-6.014l-7.794-55.129a7.175 7.175 0 0 0-6.868-6.017h-70.89a5.108 5.108 0 0 0-5.165 6.017L653.24 532a7.174 7.174 0 0 0 6.867 6.016z" class="prefix__cls-25" data-name="Path 6558" transform="translate(-642.106 -470.853)"/>
                <path id="prefix__Path_6559" d="M732.1 536.3a2.955 2.955 0 0 0 2.992-3.484l-7.257-51.331a4.15 4.15 0 0 0-3.973-3.485h-70.89a2.955 2.955 0 0 0-2.992 3.484l7.257 51.331a4.148 4.148 0 0 0 3.976 3.484z" class="prefix__cls-27" data-name="Path 6559" transform="translate(-643.84 -473.572)"/>
                <g id="prefix__Group_5368" data-name="Group 5368" transform="translate(8.654 10.783)">
                    <path id="prefix__Path_6560" d="M727.132 494.108h-71.09a1.552 1.552 0 0 1-1.483-1.291l-.488-3.274a1.084 1.084 0 0 1 1.1-1.29h71.09a1.552 1.552 0 0 1 1.483 1.29l.488 3.274a1.086 1.086 0 0 1-1.1 1.291z" class="prefix__cls-6" data-name="Path 6560" transform="translate(-654.057 -488.252)"/>
                    <path id="prefix__Path_6561" d="M671.443 533.814h-9.4a1.651 1.651 0 0 1-1.578-1.373l-4.384-29.43a1.154 1.154 0 0 1 1.168-1.373h9.4a1.651 1.651 0 0 1 1.578 1.373l4.385 29.43a1.155 1.155 0 0 1-1.169 1.373z" class="prefix__cls-6" data-name="Path 6561" transform="translate(-654.822 -493.341)"/>
                    <path id="prefix__Path_6562" d="M759.446 524.461h-24.982a1.652 1.652 0 0 1-1.578-1.373l-2.992-20.078a1.155 1.155 0 0 1 1.169-1.373h24.982a1.652 1.652 0 0 1 1.578 1.373l2.991 20.078a1.155 1.155 0 0 1-1.168 1.373z" class="prefix__cls-6" data-name="Path 6562" transform="translate(-682.887 -493.341)"/>
                    <path id="prefix__Path_6563" d="M763.6 543.1a1.669 1.669 0 0 0-1.5-1.473h-25.165a1.169 1.169 0 0 0-1.06 1.473l1.645 11.044h27.729z" class="prefix__cls-6" data-name="Path 6563" transform="translate(-685.159 -508.545)"/>
                    <path id="prefix__Path_6564" d="M720.7 526.455a1.67 1.67 0 0 0-1.5-1.474h-9.583a1.169 1.169 0 0 0-1.06 1.474l3.182 21.358h12.143z" class="prefix__cls-6" data-name="Path 6564" transform="translate(-674.772 -502.217)"/>
                    <path id="prefix__Path_6565" d="M676.477 558.337a1.668 1.668 0 0 0-1.5-1.473h-9.583a1.169 1.169 0 0 0-1.06 1.473l.238 1.6h12.143z" class="prefix__cls-6" data-name="Path 6565" transform="translate(-657.957 -514.34)"/>
                    <path id="prefix__Path_6566" d="M693.909 522.591h-9.4a1.652 1.652 0 0 1-1.578-1.373l-2.713-18.208a1.155 1.155 0 0 1 1.169-1.373h9.4a1.651 1.651 0 0 1 1.578 1.373l2.713 18.208a1.155 1.155 0 0 1-1.169 1.373z" class="prefix__cls-6" data-name="Path 6566" transform="translate(-663.999 -493.341)"/>
                    <path id="prefix__Path_6567" d="M704.737 501.637l1.658 11.124a1.669 1.669 0 0 0 1.5 1.473h9.583a1.169 1.169 0 0 0 1.06-1.473l-1.657-11.124z" class="prefix__cls-6" data-name="Path 6567" transform="translate(-673.327 -493.341)"/>
                    <path id="prefix__Path_6568" d="M698.572 539.937a1.669 1.669 0 0 0-1.5-1.473h-9.582a1.169 1.169 0 0 0-1.06 1.473l1.937 13h12.143z" class="prefix__cls-6" data-name="Path 6568" transform="translate(-666.358 -507.344)"/>
                    <path id="prefix__Path_6569" d="M665.437 511.142H659.8l-.966-6.487h5.636z" class="prefix__cls-28" data-name="Path 6569" transform="translate(-655.873 -494.489)"/>
                    <path id="prefix__Path_6570" d="M660.848 518.163l.165 1.114h9.1l-.166-1.114zm.477 3.2h9.1l-.166-1.114h-9.1zm.311 2.089h9.1l-.166-1.114h-9.1zm.311 2.09h9.1l-.165-1.114h-9.1zm.312 2.089h4.446l-.166-1.114h-4.446z" class="prefix__cls-27" data-name="Path 6570" transform="translate(-656.639 -499.625)"/>
                    <path id="prefix__Path_6571" d="M689.575 511.142h-5.635l-.967-6.487h5.636z" class="prefix__cls-29" data-name="Path 6571" transform="translate(-665.051 -494.489)"/>
                    <path id="prefix__Path_6572" d="M684.985 518.163l.166 1.114h9.1l-.166-1.114zm.477 3.2h9.1l-.166-1.114h-9.1zm.312 2.089h9.1l-.166-1.114h-9.1zm.311 2.09h9.1l-.166-1.114h-9.1zm.311 2.089h4.447l-.166-1.114h-4.447z" class="prefix__cls-27" data-name="Path 6572" transform="translate(-665.816 -499.625)"/>
                    <path id="prefix__Path_6573" d="M717.889 534.487h-5.636l-.966-6.487h5.636z" class="prefix__cls-30" data-name="Path 6573" transform="translate(-675.817 -503.365)"/>
                    <path id="prefix__Path_6574" d="M713.3 541.508l.165 1.114h9.1l-.166-1.114zm.477 3.2h9.1l-.166-1.114h-9.1zm.311 2.09h9.1l-.166-1.114h-9.1zm.311 2.089h9.1l-.166-1.114h-9.1zm.312 2.09h4.446l-.166-1.114h-4.446z" class="prefix__cls-27" data-name="Path 6574" transform="translate(-676.582 -508.501)"/>
                    <path id="prefix__Path_6575" d="M707.6 503.271l.166 1.114h9.1l-.166-1.114zm.477 3.2h9.1l-.166-1.114h-9.1zm.311 2.09h4.227l-.166-1.114h-4.227z" class="prefix__cls-27" data-name="Path 6575" transform="translate(-674.416 -493.963)"/>
                    <path id="prefix__Path_6576" d="M757.7 511.142h-23.969l-.967-6.487h23.965z" class="prefix__cls-30" data-name="Path 6576" transform="translate(-683.983 -494.489)"/>
                    <path id="prefix__Path_6577" d="M734.777 518.163l.166 1.114h23.965l-.166-1.114zm.477 3.2h14.215l-.166-1.114h-14.215z" class="prefix__cls-27" data-name="Path 6577" transform="translate(-684.749 -499.625)"/>
                    <path id="prefix__Path_6578" d="M695.082 548.11h-5.636l-.967-6.487h5.636z" class="prefix__cls-31" data-name="Path 6578" transform="translate(-667.145 -508.545)"/>
                    <path id="prefix__Path_6579" d="M690.493 555.131l.165 1.114h9.1l-.166-1.114zm.477 3.2h5.852l-.166-1.114H690.8z" class="prefix__cls-27" data-name="Path 6579" transform="translate(-667.911 -513.681)"/>
                    <path id="prefix__Path_6580" d="M670.2 543.12h-5.636l-.967-6.487h5.636z" class="prefix__cls-32" data-name="Path 6580" transform="translate(-657.685 -506.648)"/>
                    <path id="prefix__Path_6581" d="M665.612 550.141l.166 1.114h9.1l-.166-1.114z" class="prefix__cls-27" data-name="Path 6581" transform="translate(-658.45 -511.784)"/>
                </g>
            </g>
            <g id="prefix__Group_5370" data-name="Group 5370" transform="translate(167.451 50.908)">
                <path id="prefix__Path_6582" d="M870.441 552.993v.046a3.8 3.8 0 0 0-.561-.046 3.74 3.74 0 0 0-3.724 3.386l-6.34 66.633a2.64 2.64 0 0 1-2.639 2.4h-40.1a3.741 3.741 0 1 0 0 7.482h40.1a10.11 10.11 0 0 0 7.691-3.551c2.205.164 10.748.9 10.748.9l8.754-2.785 7.954-74.464z" class="prefix__cls-33" data-name="Path 6582" transform="translate(-813.334 -552.993)"/>
                <path id="prefix__Path_6583" d="M893.391 625.415a2.639 2.639 0 0 0 2.638-2.4l6.339-66.633a3.741 3.741 0 0 1 3.724-3.386 3.74 3.74 0 0 1 3.724 4.095l-6.338 66.622a10.133 10.133 0 0 1-10.088 9.188h-40.1a3.741 3.741 0 0 1-3.741-3.741 3.741 3.741 0 0 1 3.741-3.741z" class="prefix__cls-34" data-name="Path 6583" transform="translate(-827.105 -552.993)"/>
                <path id="prefix__Rectangle_2474" d="M0 0H6.083V56.542H0z" class="prefix__cls-34" data-name="Rectangle 2474" transform="rotate(180 21.795 68.223)"/>
                <path id="prefix__Path_6584" d="M887.138 769.416a6.083 6.083 0 0 0-6.083-6.083h-31.192a6.083 6.083 0 0 0-6.082 6.083h43.357z" class="prefix__cls-33" data-name="Path 6584" transform="translate(-824.911 -632.97)"/>
                <path id="prefix__Path_6585" d="M870.119 687.736h5.552a5.572 5.572 0 0 0 4.687-2.558l2.1-3.259h-19.122l2.1 3.259a5.571 5.571 0 0 0 4.683 2.558z" class="prefix__cls-33" data-name="Path 6585" transform="translate(-832.346 -602.014)"/>
            </g>
            <g id="prefix__Group_5372" data-name="Group 5372" transform="translate(112.687 15.998)">
                <path id="prefix__Path_6586" d="M791.735 579.107c2.941-1.386 19.8-3.741 22.777-5.039 4.106-1.789 7.218-6.613 9.235-10.612a73.609 73.609 0 0 0 2.891-6.837l12.6 6.656a74.224 74.224 0 0 1-5.691 8.392c-3.2 4.084-6.913 7.892-11.491 10.338-4.772 2.55-24.519 2.858-29.862 2.014-4.312-.893-3.399-3.527-.459-4.912z" class="prefix__cls-22" data-name="Path 6586" transform="translate(-749.409 -519.462)"/>
                <path id="prefix__Path_6587" d="M857.682 533.945c3.326-1.8 10.151-1.419 10.481 3.371.194 2.82-1.425 5.9-2.5 8.434a74.553 74.553 0 0 1-4.105 8.242c-.055.1-.115.188-.171.283l-13.881-5.789c3.051-3.84 5.908-12.231 10.176-14.541z" class="prefix__cls-29" data-name="Path 6587" transform="translate(-771.564 -510.463)"/>
                <path id="prefix__Path_6588" d="M772.517 589.6a5.861 5.861 0 0 0-1.965 3.983c-.033 1.519 1.206 4.563 2.335 3.546.933-.84 1.166-2.246 2.421-2.208a10.9 10.9 0 0 1 3.546 1.194c3.443 1.368 13.873-.488 9.436-5.94-3.4-4.175-12.063-4.109-15.773-.575z" class="prefix__cls-22" data-name="Path 6588" transform="translate(-742.303 -531.011)"/>
                <path id="prefix__Path_6589" d="M731.989 757.41c-.712 1.069-4.076 1.434-5.356 1.4-2.212-.052-1.76-2.56-1.206-4.685.6-2.292 1.517-5.072 2.115-7.364l8.093 2.552a29.575 29.575 0 0 1-3.646 8.097z" class="prefix__cls-22" data-name="Path 6589" transform="translate(-724.973 -591.761)"/>
                <path id="prefix__Path_6590" d="M788.278 760.083c-.273 1.069-3.242 1.251-4.264 1.221-1.765-.052-2.749-3.208-2.888-5.333l-.449-6.876 8.257 1.691a38.145 38.145 0 0 1-.656 9.297z" class="prefix__cls-22" data-name="Path 6590" transform="translate(-746.153 -592.647)"/>
                <path id="prefix__Path_6591" d="M857.2 647.59c-6.67 4.1-15.054 3.712-22.865 3.195l-46.257-3.062c-2.461-.163-5.223-.476-6.758-2.406-1.793-2.255-.925-5.778 1.116-7.811s4.912-2.945 7.667-3.788l49.289-15.086c12.27-3.754 24.895-5.864 26.764 10.707a19.31 19.31 0 0 1-8.956 18.251z" class="prefix__cls-35" data-name="Path 6591" transform="translate(-746.028 -542.04)"/>
                <path id="prefix__Rectangle_2475" d="M0 0H2.803V101.582H0z" class="prefix__cls-5" data-name="Rectangle 2475" transform="rotate(-5.13 776.438 -226.568)"/>
                <path id="prefix__Path_6592" d="M779.4 655.565c1.3-8.616 14.445-6.1 15.746.092 4.166 19.486-3.188 25.957-6.8 61.175l-9.843-.219c-1.203-20.671-.077-54.613.897-61.048z" class="prefix__cls-35" data-name="Path 6592" transform="translate(-745.128 -554.974)"/>
                <path id="prefix__Path_6593" d="M749.742 637.505c5.588-6.174 40.525-13.847 56.955-18.873 12.27-3.754 24.9-5.864 26.764 10.707a19.308 19.308 0 0 1-8.956 18.252c-6.67 4.1-15.054 3.712-22.864 3.195l-38.911-2.576c-1.424 19.486-13.361 25.94-26.85 54.959l-10.645-2.769c9.114-19.179 21.731-59.337 24.507-62.895z" class="prefix__cls-35" data-name="Path 6593" transform="translate(-725.072 -542.04)"/>
                <path id="prefix__Path_6594" d="M894.613 587.658c-.917 3.39-5.163 4.394-8.652 4.791-7.617.868-26.148-.3-31.751-5.534-3.428-3.2 2.4-9 1.314-13.567-1.934-8.082-.546-13.592-.856-21.9-.266-7.071.205-14.614 4.277-20.409a33.2 33.2 0 0 1 2.8-3.526c3.378-3.669 7.276-5.628 12.427-4.041a25.461 25.461 0 0 1 3.173 1.339c7.753 3.911 12.6 11.323 11.862 16.827-.835 6.268 6.423 42.246 5.406 46.02z" class="prefix__cls-29" data-name="Path 6594" transform="translate(-773.697 -506.646)"/>
                <path id="prefix__Path_6595" d="M882.622 524.807c-4.63 5.386-13.511 5.126-13.511 5.126-1.909.279-2.231-1.054-2.089-2.423 3.378-3.669 7.276-5.628 12.426-4.041a25.458 25.458 0 0 1 3.174 1.338z" data-name="Path 6595" transform="translate(-778.973 -506.646)" style="fill:#eff3f9;fill-rule:evenodd"/>
                <path id="prefix__Path_6596" d="M804.68 578.359c2.94-1.386 19.8-2.993 22.776-4.291 4.106-1.789 7.217-6.613 9.235-10.612a73.625 73.625 0 0 0 2.89-6.837l12.6 6.656a74.233 74.233 0 0 1-5.691 8.392c-3.2 4.084-6.913 7.892-11.491 10.338-4.772 2.55-24.519 2.11-29.862 1.266-4.311-.893-3.398-3.527-.457-4.912z" class="prefix__cls-15" data-name="Path 6596" transform="translate(-754.331 -519.462)"/>
                <path id="prefix__Path_6597" d="M863.485 542.3c1.824-3.579 4.267-7.976 8.1-9.852 4.083-2 12.283-.721 12.688 4.594a18.67 18.67 0 0 1-1.75 9.187 36.514 36.514 0 0 1-6.157 9.31 1.984 1.984 0 0 0-.209.315l-17.039-6.421c.882-2.073 3.338-5.111 4.367-7.133z" data-name="Path 6597" transform="translate(-775.979 -509.933)" style="fill:#f4d271;fill-rule:evenodd"/>
                <path id="prefix__Path_6598" d="M784.612 581.86a5.857 5.857 0 0 0-3.2 3.08c-.547 1.418-.413 4.7.994 4.128 1.162-.474 1.858-1.718 3.026-1.257a10.888 10.888 0 0 1 2.931 2.327c2.776 2.454 13.217 4.245 10.891-2.389-1.781-5.082-9.954-7.955-14.642-5.889z" class="prefix__cls-15" data-name="Path 6598" transform="translate(-746.319 -528.803)"/>
                <g id="prefix__Group_5371" data-name="Group 5371" transform="translate(89.209)">
                    <path id="prefix__Path_6599" d="M880.341 500.033c-.587-1.106-10.992 2.05-11.375 2.844s1.391 9.719.875 15.312c-.115 1.241 12.046-2.04 11.785-3.716-.713-4.582-.713-10.273-1.285-14.44z" class="prefix__cls-22" data-name="Path 6599" transform="translate(-868.912 -497.858)"/>
                    <path id="prefix__Path_6600" d="M878.572 497.009a1.572 1.572 0 0 1 .411.809 3.624 3.624 0 0 1-2.789 4.374 1.543 1.543 0 0 1-1.113-.109c-1.123-.685-.553-3.068-.013-3.991.559-.959 2.548-1.973 3.504-1.083z" class="prefix__cls-15" data-name="Path 6600" transform="translate(-871.011 -496.666)"/>
                </g>
            </g>
            <path id="prefix__Path_6601" d="M706.2 606.7H546.048a2.9 2.9 0 0 1-2.9-2.9 2.9 2.9 0 0 1 2.9-2.9H706.2a2.9 2.9 0 0 1 2.9 2.9 2.9 2.9 0 0 1-2.9 2.9z" class="prefix__cls-38" data-name="Path 6601" transform="translate(-543.152 -520.302)"/>
        </g>
        <g id="prefix__Group_5388" data-name="Group 5388" transform="translate(48.985 266.058)">
            <g id="prefix__Group_5375" data-name="Group 5375" transform="translate(133.842 33.034)">
                <path id="prefix__Path_6602" d="M361.169 583.348h-18.443L333.5 562.44h18.444z" class="prefix__cls-25" data-name="Path 6602" transform="translate(-299.564 -500.538)"/>
                <path id="prefix__Path_6603" d="M357.825 583.348h-18.444l-9.222-20.908H348.6z" data-name="Path 6603" transform="translate(-298.293 -500.538)" style="fill:#6d83a8"/>
                <path id="prefix__Path_6604" d="M357.988 591.774h-35.4a1.364 1.364 0 0 0 0 2.728h35.4a1.364 1.364 0 0 0 0-2.728z" class="prefix__cls-26" data-name="Path 6604" transform="translate(-294.895 -511.692)"/>
                <path id="prefix__Path_6605" d="M289.549 531.562a5.248 5.248 0 0 1-5.307-6.181l8.007-56.638a7.37 7.37 0 0 1 7.055-6.182h72.832a5.247 5.247 0 0 1 5.307 6.181l-8.007 56.638a7.37 7.37 0 0 1-7.054 6.181z" class="prefix__cls-25" data-name="Path 6605" transform="translate(-280.81 -462.562)"/>
                <path id="prefix__Path_6606" d="M284.111 531.562a5.247 5.247 0 0 1-5.306-6.181l8.007-56.638a7.371 7.371 0 0 1 7.055-6.182H366.7a5.248 5.248 0 0 1 5.307 6.181L364 525.381a7.37 7.37 0 0 1-7.054 6.181z" class="prefix__cls-26" data-name="Path 6606" transform="translate(-278.743 -462.562)"/>
                <path id="prefix__Path_6607" d="M286.536 529.8a3.036 3.036 0 0 1-3.073-3.58l7.456-52.736a4.263 4.263 0 0 1 4.086-3.58h72.832a3.036 3.036 0 0 1 3.073 3.58l-7.456 52.736a4.263 4.263 0 0 1-4.086 3.58z" class="prefix__cls-27" data-name="Path 6607" transform="translate(-280.524 -465.355)"/>
                <g id="prefix__Group_5374" data-name="Group 5374" transform="translate(5.448 11.078)">
                    <path id="prefix__Path_6608" d="M371.483 486.452h-73.037a1.121 1.121 0 0 1-1.135-1.326l.484-3.364a1.584 1.584 0 0 1 1.517-1.326h73.037a1.121 1.121 0 0 1 1.135 1.326l-.484 3.365a1.584 1.584 0 0 1-1.517 1.325z" class="prefix__cls-6" data-name="Path 6608" transform="translate(-291.245 -480.437)"/>
                    <path id="prefix__Path_6609" d="M299.935 527.246h-9.654a1.194 1.194 0 0 1-1.209-1.411l4.351-30.236a1.686 1.686 0 0 1 1.614-1.411h9.654a1.193 1.193 0 0 1 1.209 1.412l-4.35 30.236a1.686 1.686 0 0 1-1.615 1.41z" class="prefix__cls-6" data-name="Path 6609" transform="translate(-288.113 -485.665)"/>
                    <path id="prefix__Path_6610" d="M394.01 517.638h-25.666a1.194 1.194 0 0 1-1.208-1.411L370.1 495.6a1.686 1.686 0 0 1 1.614-1.411h25.667a1.194 1.194 0 0 1 1.208 1.411l-2.968 20.627a1.686 1.686 0 0 1-1.611 1.411z" class="prefix__cls-6" data-name="Path 6610" transform="translate(-317.795 -485.665)"/>
                    <path id="prefix__Path_6611" d="M393.486 536.783a1.208 1.208 0 0 0-1.1-1.514h-25.855a1.7 1.7 0 0 0-1.531 1.514l-1.632 11.346h28.488z" class="prefix__cls-6" data-name="Path 6611" transform="translate(-316.366 -501.286)"/>
                    <path id="prefix__Path_6612" d="M353.481 519.686a1.208 1.208 0 0 0-1.1-1.514h-9.845a1.7 1.7 0 0 0-1.533 1.514l-3.157 21.942h12.476z" class="prefix__cls-6" data-name="Path 6612" transform="translate(-306.664 -494.785)"/>
                    <path id="prefix__Path_6613" d="M300.245 552.441a1.208 1.208 0 0 0-1.1-1.513H289.3a1.7 1.7 0 0 0-1.533 1.513l-.236 1.642h12.475z" class="prefix__cls-6" data-name="Path 6613" transform="translate(-287.533 -507.24)"/>
                    <path id="prefix__Path_6614" d="M327.41 515.716h-9.654a1.193 1.193 0 0 1-1.208-1.411l2.692-18.705a1.686 1.686 0 0 1 1.615-1.411h9.654a1.193 1.193 0 0 1 1.208 1.411l-2.693 18.7a1.686 1.686 0 0 1-1.614 1.416z" class="prefix__cls-6" data-name="Path 6614" transform="translate(-298.56 -485.665)"/>
                    <path id="prefix__Path_6615" d="M345.725 494.188l-1.644 11.429a1.207 1.207 0 0 0 1.1 1.513h9.845a1.7 1.7 0 0 0 1.533-1.513l1.644-11.429z" class="prefix__cls-6" data-name="Path 6615" transform="translate(-309.027 -485.665)"/>
                    <path id="prefix__Path_6616" d="M327.447 533.537a1.207 1.207 0 0 0-1.1-1.513H316.5a1.7 1.7 0 0 0-1.533 1.513L313.05 546.9h12.475z" class="prefix__cls-6" data-name="Path 6616" transform="translate(-297.235 -500.052)"/>
                    <path id="prefix__Path_6617" d="M302.92 503.954h-5.79l.959-6.665h5.79z" class="prefix__cls-28" data-name="Path 6617" transform="translate(-291.182 -486.844)"/>
                    <path id="prefix__Path_6618" d="M295.821 511.168l-.164 1.144h9.351l.164-1.144zm-.474 3.291h9.353l.165-1.144h-9.351zm-.309 2.147h9.351l.165-1.145H295.2zm-.309 2.147h9.352l.164-1.145h-9.351zm-.309 2.147h4.568l.165-1.145h-4.568z" class="prefix__cls-27" data-name="Path 6618" transform="translate(-290.152 -492.122)"/>
                    <path id="prefix__Path_6619" d="M327.718 503.954h-5.79l.959-6.665h5.79z" class="prefix__cls-29" data-name="Path 6619" transform="translate(-300.611 -486.844)"/>
                    <path id="prefix__Path_6620" d="M320.62 511.168l-.165 1.144h9.351l.165-1.144zm-.473 3.291h9.353l.165-1.144h-9.355zm-.309 2.147h9.351l.165-1.145H320zm-.309 2.147h9.351l.165-1.145h-9.352zm-.309 2.147h4.568l.165-1.145h-4.568z" class="prefix__cls-27" data-name="Path 6620" transform="translate(-299.581 -492.122)"/>
                    <path id="prefix__Path_6621" d="M349.784 527.938h-5.79l.959-6.665h5.79z" class="prefix__cls-30" data-name="Path 6621" transform="translate(-309.001 -495.964)"/>
                    <path id="prefix__Path_6622" d="M342.686 535.152l-.165 1.144h9.351l.165-1.144zm-.474 3.291h9.352l.164-1.144h-9.351zm-.309 2.147h9.351l.165-1.144h-9.351zm-.309 2.147h9.351l.165-1.145h-9.352zm-.309 2.147h4.568l.165-1.144h-4.568z" class="prefix__cls-27" data-name="Path 6622" transform="translate(-307.971 -501.241)"/>
                    <path id="prefix__Path_6623" d="M348.717 495.868l-.165 1.144h9.348l.165-1.144zm-.474 3.291h9.351l.165-1.144h-9.352zm-.309 2.147h4.343l.164-1.144H348.1z" class="prefix__cls-27" data-name="Path 6623" transform="translate(-310.499 -486.304)"/>
                    <path id="prefix__Path_6624" d="M397.7 503.954h-24.617l.959-6.665h24.621z" class="prefix__cls-30" data-name="Path 6624" transform="translate(-320.062 -486.844)"/>
                    <path id="prefix__Path_6625" d="M372.343 511.168l-.165 1.144H396.8l.164-1.144zm-.474 3.291h14.6l.165-1.144h-14.6z" class="prefix__cls-27" data-name="Path 6625" transform="translate(-319.6 -492.122)"/>
                    <path id="prefix__Path_6626" d="M322.254 541.934h-5.79l.959-6.665h5.79z" class="prefix__cls-31" data-name="Path 6626" transform="translate(-298.533 -501.286)"/>
                    <path id="prefix__Path_6627" d="M315.723 549.148l-.165 1.144h9.352l.164-1.144zm-.474 3.291h6.012l.164-1.144h-6.012z" class="prefix__cls-27" data-name="Path 6627" transform="translate(-298.072 -506.563)"/>
                    <path id="prefix__Path_6628" d="M298.193 536.807H292.4l.959-6.665h5.79z" class="prefix__cls-32" data-name="Path 6628" transform="translate(-289.385 -499.336)"/>
                    <path id="prefix__Path_6629" d="M291.852 544.021l-.165 1.145h9.352l.164-1.145z" class="prefix__cls-27" data-name="Path 6629" transform="translate(-289.112 -504.613)"/>
                </g>
            </g>
            <g id="prefix__Group_5381" data-name="Group 5381" transform="translate(26.435)">
                <g id="prefix__Group_5377" data-name="Group 5377" transform="translate(90.257 38.116)">
                    <path id="prefix__Path_6630" d="M256.392 517.805a110.274 110.274 0 0 0 8.828 24.082c1.049 2.071 2.553 4.372 4.871 4.5 2.677.153 4.9-2.567 5.352-5.211 1.232-7.242-.583-18.857-2.565-28.694z" class="prefix__cls-22" data-name="Path 6630" transform="translate(-253.095 -486.626)"/>
                    <path id="prefix__Path_6631" d="M271.668 492.981c-1.274-6.042-3.258-21.5-11.377-22.188-9.5-.8-9.679 13.125-8.967 19.175a109.719 109.719 0 0 0 2.276 12.74l18.824-6.073q-.37-1.835-.756-3.654z" data-name="Path 6631" transform="translate(-251.072 -470.76)" style="fill:#09aad6;fill-rule:evenodd"/>
                    <path id="prefix__Path_6632" d="M302.951 506.681c1.445-.867 3.249-1.75 4.723-.931 2.173 1.207 1.3 4.506.063 6.662a93.193 93.193 0 0 1-25.969 28.888c-5.843 4.246-8.6 3.357-11.681-3.15-3.397-7.173 23.855-26.063 32.864-31.469z" class="prefix__cls-15" data-name="Path 6632" transform="translate(-258.191 -483.941)"/>
                    <path id="prefix__Path_6633" d="M325.733 496.141c3.729-2.963 8.935-2.946 13.7-2.789.26.6-.254 1.281-.849 1.553s-1.276.306-1.873.575c-1.569.7-2.021 2.715-2 4.434s.28 3.564-.579 5.054a5.492 5.492 0 0 1-4.465 2.359c-2.125.152-7.424-.879-7.986-3.518-.524-2.429 2.311-6.283 4.052-7.668z" class="prefix__cls-15" data-name="Path 6633" transform="translate(-277.894 -479.33)"/>
                    <g id="prefix__Group_5376" data-name="Group 5376" transform="translate(45.361 18.779)">
                        <path id="prefix__Path_6634" d="M328.851 508.621a8.58 8.58 0 0 1-4.353-1.169.481.481 0 1 1 .49-.827 7.663 7.663 0 0 0 6.772.459c.359-.152.731-.42.694-.648-.046-.3-.739-.416-1.112-.482a6.79 6.79 0 0 1-5.11-4.245.481.481 0 1 1 .9-.336 5.814 5.814 0 0 0 4.375 3.635c.608.106 1.74.3 1.9 1.276.107.674-.368 1.3-1.271 1.685a8.467 8.467 0 0 1-3.285.652z" class="prefix__cls-22" data-name="Path 6634" transform="translate(-324.262 -501.06)"/>
                    </g>
                </g>
                <g id="prefix__Group_5379" data-name="Group 5379" transform="translate(0 80.698)">
                    <path id="prefix__Path_6635" d="M216 550.632c-2.079-5.041-24.011 1.038-27.719 9.464a15.15 15.15 0 0 0-5.406 7c-1.606 4.447-1.039 8.871-.4 13.067q3.443 22.542 8.876 44.338a6.37 6.37 0 0 0 1.283 2.934c1.862 1.955 4.948 1.135 7.634-.668a4.021 4.021 0 0 0 .568.233c1.738.544 7.377-2.9 8.612-4.282s8.225-68.028 6.552-72.086z" class="prefix__cls-41" data-name="Path 6635" transform="translate(-134.488 -543.016)"/>
                    <path id="prefix__Path_6636" d="M196.19 756.47a18.509 18.509 0 0 0 8.068-.641l1.07-9.384a2.195 2.195 0 0 0-.067-1.144 1.735 1.735 0 0 0-1.366-.782c-2.1-.382-5.381-.5-5.918 2.213-.642 3.243-1.19 6.493-1.787 9.738z" class="prefix__cls-22" data-name="Path 6636" transform="translate(-139.947 -617.357)"/>
                    <path id="prefix__Path_6637" d="M215.985 648.277c-1.807-5.538-9.019-9.334-15.4.273-9.734 14.651-.964 42.056-3.733 59.749h9.086c.762-1.713 11.049-56.95 10.047-60.022z" class="prefix__cls-41" data-name="Path 6637" transform="translate(-139.819 -578.704)"/>
                    <path id="prefix__Path_6638" d="M159.069 563.312c2.212 1.742 5.137 2.009 7.88 2.009 22.586 0 35.655-7.345 32.531-17.719-3.209-10.657-23.421-8.936-33.978-5.5-2.275.74-5.592 1.457-7.146 3.582-2.256 3.077-4.662 13.395.713 17.628z" data-name="Path 6638" transform="translate(-124.596 -539.468)" style="fill:#00666b"/>
                    <path id="prefix__Path_6639" d="M152.546 559.905c3.2-15.06 30.222-11.335 33.346 3.614 1.609 7.7-.43 15.677-3.021 23.1a154.611 154.611 0 0 1-7.509 17.832c-2.581 5.192-5.594 11.994-8.74 16.865-.349.54-13.736-.183-14.226-3.043a169.47 169.47 0 0 1-2.273-21.549c-.503-12.072-.105-24.936 2.423-36.819z" class="prefix__cls-41" data-name="Path 6639" transform="translate(-122.359 -543.583)"/>
                    <path id="prefix__Path_6640" d="M220.478 765.383c.117-1.3-1.117-2.378-2.387-2.68a17.7 17.7 0 0 0-3.9-.087 10.537 10.537 0 0 1-9.046-5.584 2.668 2.668 0 0 0-.909-1.207 1.751 1.751 0 0 0-1.891.348c-.527.432-.9 1.022-1.38 1.5a4.633 4.633 0 0 1-3.314 1.327c-1.021-.015-2.164-.8-3.146-.279-.866.456-1.1 1.654-1.318 2.51-.378 1.473-.721 2.956-1.081 4.433a6.217 6.217 0 0 0-.182 1.006h7.093a9.946 9.946 0 0 0 .74-2.376 5.6 5.6 0 0 0 .615 2.376h19.495a2.191 2.191 0 0 0 .611-1.287z" class="prefix__cls-43" data-name="Path 6640" transform="translate(-138.325 -621.674)"/>
                    <path id="prefix__Path_6641" d="M753.107 768.912c-.116-1.3 1.117-2.377 2.387-2.68a17.712 17.712 0 0 1 3.9-.087 10.538 10.538 0 0 0 9.046-5.584 2.657 2.657 0 0 1 .908-1.207 1.751 1.751 0 0 1 1.891.347c.527.433.9 1.023 1.38 1.5a4.636 4.636 0 0 0 3.312 1.326c1.021-.015 2.164-.8 3.145-.279.866.455 1.1 1.654 1.319 2.509.378 1.473.721 2.956 1.081 4.433a6.178 6.178 0 0 1 .182 1.006h-7.093a9.971 9.971 0 0 1-.74-2.376 5.6 5.6 0 0 1-.614 2.376h-19.5a2.2 2.2 0 0 1-.604-1.284z" class="prefix__cls-44" data-name="Path 6641" transform="translate(-351.7 -623.016)"/>
                    <path id="prefix__Path_6642" d="M697.342 764.677c-.116-1.3 1.118-2.378 2.387-2.68a17.692 17.692 0 0 1 3.9-.087 10.539 10.539 0 0 0 9.046-5.584 2.667 2.667 0 0 1 .908-1.208 1.752 1.752 0 0 1 1.891.348c.527.432.9 1.023 1.38 1.5a4.635 4.635 0 0 0 3.312 1.326c1.021-.015 2.164-.8 3.145-.28.866.456 1.1 1.654 1.319 2.509.378 1.473.721 2.956 1.081 4.433a6.28 6.28 0 0 1 .182 1.006H718.8a9.914 9.914 0 0 1-.74-2.375 5.594 5.594 0 0 1-.615 2.375h-19.49a2.2 2.2 0 0 1-.613-1.283z" class="prefix__cls-44" data-name="Path 6642" transform="translate(-330.497 -621.405)"/>
                    <g id="prefix__Group_5378" data-name="Group 5378" transform="translate(0 68.186)">
                        <path id="prefix__Path_6643" d="M110.608 751.418a17.783 17.783 0 0 0 7.609 2.418l3.052-8.89a2.354 2.354 0 0 0 .19-1.158 2.129 2.129 0 0 0-1.092-1.292c-1.863-1.174-4.871-2.532-5.965-.048-1.302 2.97-2.527 5.983-3.794 8.97z" class="prefix__cls-22" data-name="Path 6643" transform="translate(-107.406 -684.302)"/>
                        <path id="prefix__Path_6644" d="M153.582 658.331c.105-5.928-6.1-13.182-14.345-5.568-13.279 12.26-18.213 36.677-24.06 54.713l8.41 3.437c1.259-1.335 29.936-49.287 29.995-52.582z" class="prefix__cls-41" data-name="Path 6644" transform="translate(-109.144 -649.486)"/>
                        <path id="prefix__Path_6645" d="M117.547 764.8a3.051 3.051 0 0 0 .043-2.878c-.4-.492-.384-2.839-.247-6.228.063-1.551-2.509-3.042-4.821-1.273-.75.573-1.36.9-1.849.676-.41-.183-.579-1.1-1.174-.782a6.039 6.039 0 0 0-1.486 2.1c-.711 1.3-1.411 2.616-2.117 3.924-.156.289-.317.593-.454.9l11.369 4.647a3.834 3.834 0 0 0 .736-1.086z" class="prefix__cls-43" data-name="Path 6645" transform="translate(-105.442 -689.081)"/>
                    </g>
                </g>
                <path id="prefix__Path_6646" d="M206.285 523.055c-.392-19.147 7.5-32.4 17.127-42.094 3.76-3.788 8.32-8.223 7.337-13.469-.835-4.456-5.349-7.114-9.485-8.971a146.3 146.3 0 0 0-22.125-7.72c-4.533-1.214-16.17-7.647-20.883-6.412-12.691 3.329-10.77 26.7-14.276 37.323-2.817 8.533-9.489 35.3-9.4 35.923l50.185 15.832c2.772-1.906 1.609-6.082 1.52-10.412z" class="prefix__cls-9" data-name="Path 6646" transform="translate(-124.124 -422.558)"/>
                <g id="prefix__Group_5380" data-name="Group 5380" transform="translate(74.474 2.294)">
                    <path id="prefix__Path_6647" d="M242.459 440.063c-2.119-5.751-7.667-8.257-10.707-7.692-1.1 9.6-1.284 10.178-6.048 14.459-1.406 5.125 12.487 10.094 14.669 8.089.027-.785 3.182-11.883 2.086-14.856z" class="prefix__cls-22" data-name="Path 6647" transform="translate(-225.605 -420.312)"/>
                    <path id="prefix__Path_6648" d="M260.973 422.307a4.958 4.958 0 0 1 1.479 3.287 5.443 5.443 0 0 1-1.113 2.57l-2.021 3.061a14.166 14.166 0 0 1-.888-4.558 7.729 7.729 0 0 0-1.494-4.344c-.632-.728-1.567-1.375-1.569-2.34a1.381 1.381 0 0 1 2.4-.91 30.172 30.172 0 0 1 3.206 3.234z" class="prefix__cls-21" data-name="Path 6648" transform="translate(-236.921 -415.128)"/>
                    <path id="prefix__Path_6649" d="M238.491 420.747a7.99 7.99 0 0 1 13.318 2.075c2.289 5.014-.523 15.461-2.627 17.607-3.677 3.752-11.239-.769-12.25-3.654-1.481-4.225-1.496-12.39 1.559-16.028z" class="prefix__cls-15" data-name="Path 6649" transform="translate(-229.542 -414.887)"/>
                    <path id="prefix__Path_6650" d="M238.11 423.6c.205.8-1.885 11.394-2.176 11.267-1.034-.451-2.3-3.459-4.276-3.384-.63.024-1.5.416-1.505-.845 0-7.987-.325-7.586 1.111-8.291 3.165-1.552 6.48-.18 6.846 1.253z" class="prefix__cls-21" data-name="Path 6650" transform="translate(-227.321 -416.27)"/>
                    <path id="prefix__Path_6651" d="M229.822 434.1a5.053 5.053 0 0 0 1.03 3.644c2.283 2.916 4.7-.922 4.208-3.35-.592-2.894-4.839-3.794-5.238-.294z" class="prefix__cls-15" data-name="Path 6651" transform="translate(-227.197 -420.135)"/>
                    <path id="prefix__Path_6652" d="M247.859 421.567c-.193.7-.6 1.463-1.32 1.564-.747.106-7.561-5.6-7.994-5.647s.063 2.912-.418 3.23c-.412.272-.957.067-1.413-.121a14.9 14.9 0 0 0-6.391-.659 4.014 4.014 0 0 1 .386-2.324 6.1 6.1 0 0 1 1.291-1.446 11.538 11.538 0 0 1 7.765-3.2 14.035 14.035 0 0 1 4.954 1.216c6.051 2.574 3.434 6.327 3.14 7.387z" class="prefix__cls-21" data-name="Path 6652" transform="translate(-227.382 -412.962)"/>
                </g>
                <path id="prefix__Path_6653" d="M193.867 496.97l-17.488 1.63a159.155 159.155 0 0 0 1.689 23.1l14.607-1.462c.136-7.719.549-15.388 1.192-23.268z" class="prefix__cls-15" data-name="Path 6653" transform="translate(-132.414 -442.61)"/>
                <path id="prefix__Path_6654" d="M195.289 465.676c.729-6.667 5.9-16.473-1.5-19.65-6.828-2.93-13.176 1.647-14.558 8.118a134.926 134.926 0 0 0-2.848 27.921l19.083-.787c.39-4.821-.728-10.563-.177-15.602z" data-name="Path 6654" transform="translate(-132.414 -422.896)" style="fill:#48dafa;fill-rule:evenodd"/>
                <path id="prefix__Path_6655" d="M193.788 529.091l-14.688 4.82c.791 1.652 15.128 25.736 22.348 34.271 1.2 1.423 3.169 2.946 4.71 1.9 1.273-.867 1.346-2.854.738-4.269a321.16 321.16 0 0 1-13.108-36.722z" class="prefix__cls-15" data-name="Path 6655" transform="translate(-133.45 -454.824)"/>
                <path id="prefix__Path_6656" d="M229.654 419.123a1.926 1.926 0 0 0-1.6 1.208 5.064 5.064 0 0 1 1.946-4.44c-.85.112-1.5-.92-1.314-1.758a3.346 3.346 0 0 1 1.617-1.914 12.311 12.311 0 0 1 8.061-1.877l.157-1.082a8.73 8.73 0 0 1 4.465 2.546l.154-.954 3.685 2.241a.384.384 0 0 1 .216-.635 12.486 12.486 0 0 1 4.663 8.536 14.555 14.555 0 0 0-5.455-3.958c-3.135-1.3-6.691-1.484-9.663-3.12a2.756 2.756 0 0 1-2.979 3.209l.876-.888z" class="prefix__cls-21" data-name="Path 6656" transform="translate(-152.055 -409.261)"/>
                <path id="prefix__Path_6657" d="M224.525 582.727a6.826 6.826 0 0 1 3.148 2.2l3.931 4.051c.526.543 1.095 1.293.777 1.98a1.309 1.309 0 0 1-1.774.415 3.8 3.8 0 0 1-1.331-1.513 2.285 2.285 0 0 1-2.3 1.943l-1.531-1.671c-.979 1.212-2.8 1.176-4.355 1.032-2.524-.234-5.652-1.045-3.834-3.965 1.321-2.131 4.544-5.099 7.269-4.472z" class="prefix__cls-15" data-name="Path 6657" transform="translate(-147.75 -475.186)"/>
            </g>
            <g id="prefix__Group_5382" data-name="Group 5382" transform="translate(0 85.336)">
                <path id="prefix__Path_6658" d="M91.471 546.951v.048a3.814 3.814 0 0 1 4.4 3.431l6.513 68.458a2.711 2.711 0 0 0 2.71 2.469h41.2a3.843 3.843 0 1 1 0 7.686H105.1a10.388 10.388 0 0 1-7.9-3.647c-2.266.168-11.042.92-11.042.92l-8.994-2.862-8.172-76.5z" class="prefix__cls-33" data-name="Path 6658" transform="translate(-65.147 -546.951)"/>
                <path id="prefix__Path_6659" d="M79.682 621.356a2.711 2.711 0 0 1-2.711-2.469l-6.513-68.457a3.843 3.843 0 0 0-7.652.728l6.512 68.442a10.41 10.41 0 0 0 10.364 9.439h41.2a3.843 3.843 0 1 0 0-7.686z" class="prefix__cls-34" data-name="Path 6659" transform="translate(-62.789 -546.951)"/>
                <path id="prefix__Rectangle_2476" d="M0 0H6.25V58.09H0z" class="prefix__cls-34" data-name="Rectangle 2476" transform="translate(40.211 82.092)"/>
                <path id="prefix__Path_6660" d="M96.774 769.3a6.25 6.25 0 0 1 6.25-6.25h32.046a6.25 6.25 0 0 1 6.25 6.25z" class="prefix__cls-33" data-name="Path 6660" transform="translate(-75.711 -629.118)"/>
                <path id="prefix__Path_6661" d="M129.538 685.384h-5.705a5.726 5.726 0 0 1-4.815-2.628l-2.153-3.349h19.642l-2.154 3.349a5.724 5.724 0 0 1-4.815 2.628z" class="prefix__cls-33" data-name="Path 6661" transform="translate(-83.35 -597.314)"/>
            </g>
            <g id="prefix__Group_5383" data-name="Group 5383" transform="translate(40.686 73.231)">
                <path id="prefix__Path_6662" d="M184.21 565.593c-3.021-1.424-20.338-3.843-23.4-5.177-4.218-1.838-7.415-6.794-9.487-10.9-.943-1.87-7.72-18.7-12.1-21.073-3.417-1.851-10.43-1.458-10.768 3.464-.2 2.9 1.465 6.061 2.566 8.665a76.62 76.62 0 0 0 4.218 8.467c.056.1.118.193.175.291a76.3 76.3 0 0 0 5.847 8.621c3.29 4.2 7.1 8.109 11.806 10.622 4.9 2.619 25.19 2.936 30.681 2.069 4.421-.919 3.483-3.625.462-5.049z" class="prefix__cls-46" data-name="Path 6662" transform="translate(-128.435 -527.42)"/>
                <path id="prefix__Path_6663" d="M230 584.56a6.02 6.02 0 0 1 2.019 4.092c.034 1.561-1.239 4.689-2.4 3.644-.958-.863-1.2-2.308-2.486-2.269a11.2 11.2 0 0 0-3.644 1.227c-3.538 1.406-14.253-.5-9.694-6.1 3.494-4.294 12.393-4.225 16.205-.594z" class="prefix__cls-22" data-name="Path 6663" transform="translate(-160.469 -548.128)"/>
                <path id="prefix__Path_6664" d="M276.34 751.059c.732 1.1 1.709 2.323 3.025 2.293 2.272-.053 2.438-3.3 1.869-5.479l-1.841-7.064-7.135 2.086a29.8 29.8 0 0 0 4.082 8.164z" class="prefix__cls-22" data-name="Path 6664" transform="translate(-183.12 -608.557)"/>
                <path id="prefix__Path_6665" d="M238.45 646.512c-5.742-6.342-28.641 12.011-13.344 11 1.463 20.02 18.477 27.186 26.094 49.361l11.443-2.334C255.7 694.1 241.3 650.168 238.45 646.512z" class="prefix__cls-47" data-name="Path 6665" transform="translate(-163.222 -572.194)"/>
                <path id="prefix__Path_6666" d="M151.793 736.574c-.586 1.183-1.158 2.642-.474 3.766 1.183 1.941 4.073.463 5.68-1.121l5.2-5.126-7-4.183c-1.16 2.21-2.299 4.428-3.406 6.664z" class="prefix__cls-15" data-name="Path 6666" transform="translate(-137.018 -604.412)"/>
                <path id="prefix__Path_6667" d="M204.834 652.531c-3.49-10.8-25.256 10.521-29.056 16.261a343 343 0 0 0-18.017 30.552l8.5 6.955c5.573-11.228 16.688-20.706 25.78-29.673 2.988-2.948 6.037-5.978 7.861-9.805s5.554-12.364 4.932-14.29z" class="prefix__cls-47" data-name="Path 6667" transform="translate(-139.586 -573.846)"/>
                <path id="prefix__Path_6668" d="M273.061 749.348c.444.778 2.492 1.141 3.336 1.175.667.027 3.721-1.365 4.382-1.137.475.164 2.247 6.539 4.447 7.892a52.133 52.133 0 0 0 6.982 3.1 7.642 7.642 0 0 1 2.3 1.373 2.77 2.77 0 0 1 .977 2.315 1.315 1.315 0 0 1-.069.2h-14.392c-.418-.491-.8-1.025-1.161-1.549l-3.95-5.654c-.415 2.059-.774 4.474-1.172 7.2h-1.608c-.513-2.19-1.933-12.635-.072-14.915z" class="prefix__cls-48" data-name="Path 6668" transform="translate(-183.072 -611.803)"/>
                <path id="prefix__Path_6669" d="M142.267 747.556a15.6 15.6 0 0 1 1.941-4.465 7.781 7.781 0 0 1 3.528-3.083c.009.839.37 2.115 1.138 2.454.607.268 4.172.174 4.667.614.333.3-1.09 5.718-.184 8.049 0 0 3.248 2.459 4.923 3.64a6.135 6.135 0 0 1 1.795 1.725 2.42 2.42 0 0 1 .17 2.385 1.54 1.54 0 0 1-.135.177l-12.376-2.268-1.687-.664a16.175 16.175 0 0 1-.278-1.774l-.741-6.367a24.627 24.627 0 0 0-3.248 6.462l-1.5-.588z" class="prefix__cls-48" data-name="Path 6669" transform="translate(-132.94 -608.252)"/>
                <path id="prefix__Path_6670" d="M217.791 576.609a6.019 6.019 0 0 1 3.287 3.165c.562 1.457.425 4.831-1.021 4.241-1.194-.487-1.91-1.765-3.109-1.291a11.206 11.206 0 0 0-3.011 2.391c-2.851 2.521-13.578 4.362-11.189-2.455 1.83-5.222 10.225-8.174 15.043-6.051z" class="prefix__cls-15" data-name="Path 6670" transform="translate(-156.56 -545.859)"/>
            </g>
            <g id="prefix__Group_5384" data-name="Group 5384" transform="translate(36.605 36.212)">
                <path id="prefix__Path_6671" d="M125.443 492.886c.6-1.136 7.215 2.272 7.608 3.088s.809 10.053 2.223 15.819c.3 1.245-12.028-2.565-11.152-4.072 1.42-2.443 2.87-11.758 1.321-14.835z" class="prefix__cls-22" data-name="Path 6671" transform="translate(-122.697 -477.182)"/>
                <path id="prefix__Path_6672" d="M143.655 475.067c-2.284-9.474-15.245-7.476-18.323-6.532s-3.157 5.3-3.454 8.506a8.1 8.1 0 0 0 1.711 5.517c1.132 1.51 6.061 3.785 6.34 3.844 1.83 3.153 2.368 5.111 5.393 5.067 1.363-.02 5.324.3 6.125-.8a10.039 10.039 0 0 0 1.373-3.26 22.452 22.452 0 0 0 .835-12.342z" class="prefix__cls-15" data-name="Path 6672" transform="translate(-121.85 -467.689)"/>
            </g>
            <path id="prefix__Path_6673" d="M228.011 587.163l-25.248 2.019a1.785 1.785 0 0 0 .143 3.564h25.248a1.785 1.785 0 0 0 1.785-1.785v-2.019a1.785 1.785 0 0 0-1.928-1.779z" data-name="Path 6673" transform="translate(-115.386 -476.902)" style="fill:#a2d1eb"/>
            <g id="prefix__Group_5387" data-name="Group 5387" transform="translate(87.627 115.844)">
                <g id="prefix__Group_5385" data-name="Group 5385" transform="translate(17.646 5.818)">
                    <path id="prefix__Rectangle_2477" d="M0 0H104.364V2.882H0z" class="prefix__cls-5" data-name="Rectangle 2477" transform="rotate(-84.731 56.974 51.962)"/>
                </g>
                <g id="prefix__Group_5386" data-name="Group 5386" transform="translate(140.347 5.819)">
                    <path id="prefix__Rectangle_2478" d="M0 0H2.882V104.364H0z" class="prefix__cls-5" data-name="Rectangle 2478" transform="rotate(-5.283 2.872 .133)"/>
                </g>
                <path id="prefix__Path_6674" d="M371.658 602.127H207.151a2.976 2.976 0 1 1 0-5.952h164.507a2.976 2.976 0 1 1 0 5.952z" class="prefix__cls-38" data-name="Path 6674" transform="translate(-204.175 -596.175)"/>
            </g>
        </g>
        <circle id="prefix__Ellipse_45" cx="7.073" cy="7.073" r="7.073" class="prefix__cls-50" data-name="Ellipse 45" transform="translate(191.591 156.046)"/>
        <circle id="prefix__Ellipse_46" cx="6.344" cy="6.344" r="6.344" data-name="Ellipse 46" transform="translate(206.122 150.329)" style="stroke-width:1.345px;stroke:#222b56;fill:none;stroke-miterlimit:10"/>
        <path id="prefix__Path_6675" d="M315.086 232.818a1.846 1.846 0 0 0-1.968 1.422" class="prefix__cls-50" data-name="Path 6675" transform="translate(-109.178 -75.748)"/>
        <path id="prefix__Path_6676" d="M256.578 330.016s-5.177-16.151-15.823-25.192c0 0-25.738 7.692-44.7 33.212z" class="prefix__cls-18" data-name="Path 6676" transform="translate(-64.602 -103.192)"/>
        <path id="prefix__Path_6677" d="M261.452 305.647s-15.531 11.557-7.51 46.41l11.52 4.229-9.3 7.036a441.059 441.059 0 0 1 30.77 39.578" class="prefix__cls-52" data-name="Path 6677" transform="translate(-85.77 -103.54)"/>
        <path id="prefix__Path_6678" d="M315 301s29.241 24.017 27.2 48.707l-7.715 4.688 7.37 5.192s-1.988 26.577-10.446 41.16" class="prefix__cls-52" data-name="Path 6678" transform="translate(-109.903 -101.771)"/>
        <path id="prefix__Path_6679" d="M141.452 461.353S149 463.1 149 470.394l-7.766-.729s-.219 7.984-5.468 8.859c-.001 0 1.749-15.13 5.686-17.171z" data-name="Path 6679" transform="translate(-41.551 -162.81)" style="fill:#0a2a49"/>
        <path id="prefix__Path_6680" d="M139.319 509.715c-.656-16.078-7.393-19.052-7.8-19.359a30.391 30.391 0 0 1-.758-4.193c-2.159-19.65 3.419-25.337 3.419-25.337-5.688-2.333-9.173-1.526-13.234.328a9.448 9.448 0 0 0-4.7 5.031c-3.243 5.634-.12 15.008 1.859 18.7.616 1.15 1.2 2.078 1.968 3.391l-1.968 1.2a4.408 4.408 0 0 0-1.167.948 2.245 2.245 0 0 0-.146 2.333l-1.458.875c-2.953 2.625-.839 3.937-.839 3.937 2.407-2.516 7.766-2.844 7.766-2.844a12.056 12.056 0 0 1 6.416 1.385 20.361 20.361 0 0 1 4.593 4.156c4.924 6.575 6.049 9.449 6.049 9.449z" data-name="Path 6680" transform="translate(-33.183 -162.087)" style="fill:#d02f45"/>
        <path id="prefix__Path_6681" d="M192.413 596.7s-1.458-3.791-8.166-4.666l-56.217-17.322c.421-1.321.775-2.668 1.094-4q.709-2.968 1.276-5.969a14.031 14.031 0 0 0 2.808 2.062c4.368 2.333 21.623 3.759 29.189 1.144a11 11 0 0 0 3.357-1.481 2.37 2.37 0 0 0 1.492-1.934c1.058-3.423-5.054-6.479-5.054-6.479l-12.9-.909c-3.935-.6-7.433-1.137-8.633-1.709-4.825-2.3-8.275-25.091-12.453-31.045-4.163-5.932-8.836-9.867-15.649-7.775-14.93 1.626-11.618 30.705-11.722 37.208-.094 5.822.583 7-1.944 17.51l-.1-.011s-11.355 25.007-.291 35.29c0 0 24.207 4.667 57.165 2.917l-7.875 12.25s10.21 6.119 26.249 4.957c0 0 6.708-14.583 5.541-23.624 0 0 2.917 13.125 1.75 25.958 0 0 14 2.333 20.707-10.791z" data-name="Path 6681" transform="translate(-25.541 -183.806)" style="fill:#23688e"/>
        <path id="prefix__Path_6682" d="M121.706 553.235s15.166 23.041 19.541 25.812l-1.458 5.8s-9.189-14.547-18.083-31.612z" class="prefix__cls-46" data-name="Path 6682" transform="translate(-36.206 -197.822)"/>
        <path id="prefix__Path_6683" d="M199.634 633.721s1.531-7.218-3.5-9.187l-50.311-18.812a82.5 82.5 0 0 0 2.187-13.781" data-name="Path 6683" transform="translate(-45.376 -212.577)" style="stroke:#112f41;stroke-width:.5px;fill:none;stroke-miterlimit:10"/>
        <path id="prefix__Line_31" d="M6.781 0L0 1.531" class="prefix__cls-50" data-name="Line 31" transform="translate(185.256 165.81)"/>
        <g id="prefix__Group_5389" data-name="Group 5389" transform="translate(539.201 304.21)">
            <path id="prefix__Path_6684" d="M864.539 490.685a5.659 5.659 0 0 1-.757 3.943 3.647 3.647 0 0 1-2.077 1.915c-1 .262-2.852-12.077-2.439-12.812a3.151 3.151 0 0 1 2.819-1.574" class="prefix__cls-57" data-name="Path 6684" transform="translate(-856.499 -474.944)"/>
            <path id="prefix__Path_6685" d="M863.274 477.565c-4.031 4.645-3.6 21.386-1.3 22.038 4.331 1.23 11.942-.108 15.083-3.377 3.4-3.538 2.59-10.635 2-15.108-.533-4.063-2.31-9.36-7.421-8.473a14.316 14.316 0 0 0-8.362 4.92z" class="prefix__cls-15" data-name="Path 6685" transform="translate(-856.891 -471.291)"/>
            <path id="prefix__Path_6686" d="M874.578 479.654a4.326 4.326 0 0 1-4.6 1.189 17.826 17.826 0 0 0-1.76-.712 7.184 7.184 0 0 0-3.064.274 14.3 14.3 0 0 1-4.385.192 5.019 5.019 0 0 1-2.114-.582 6.761 6.761 0 0 1-1.181-.86 3.341 3.341 0 0 0-.655-.585 5.944 5.944 0 0 0-.552-.224 2.6 2.6 0 0 1-.855-3.936 1.246 1.246 0 0 1 .46-.319 1.8 1.8 0 0 1 1.279.2 4.4 4.4 0 0 1 .244-2.248 2.814 2.814 0 0 1 1.867-1.39 6.074 6.074 0 0 1 2.386-.022 14.838 14.838 0 0 1 2.417.574 3.366 3.366 0 0 0 1.3.262 5.242 5.242 0 0 0 1.406-.5 6.338 6.338 0 0 1 2.532-.283 9.526 9.526 0 0 1 4.492 1.045 4.138 4.138 0 0 1 2.16 4.132" class="prefix__cls-57" data-name="Path 6686" transform="translate(-854.837 -470.52)"/>
            <path id="prefix__Path_6687" d="M882.21 480.921a4.989 4.989 0 0 0-1.046 3.029 9.146 9.146 0 0 0 .685 4.808c.206.418.322 2.529.762 2.373.171-.061.172-1.541.47-2.391.46-1.316 2.246-1.725 2.978-.914 1.309 1.451.451 3.078.232 3.868-.18.646-.762 1.274-.852 1.917-.115.822-.208 3.821.314 4.537.436.6.977-2.229 1.393-2.779 3.1-4.095 3.873-15.915-.317-17.222a3.1 3.1 0 0 0-2.472.011" class="prefix__cls-57" data-name="Path 6687" transform="translate(-864.828 -473.323)"/>
        </g>
        <g id="prefix__Group_5394" data-name="Group 5394" transform="translate(562.226 403.958)">
            <g id="prefix__Group_5390" data-name="Group 5390" transform="translate(0 16.576)">
                <path id="prefix__Path_6688" d="M910.9 701.266s-25.311-34.192-17.368-41.494 19.549 18.42 17.368 41.494z" class="prefix__cls-58" data-name="Path 6688" transform="translate(-891.989 -658.508)"/>
                <path id="prefix__Path_6689" d="M898.56 666.933c13.324 19.642 16.185 41.887 16.773 54.554" class="prefix__cls-59" data-name="Path 6689" transform="translate(-894.487 -661.711)"/>
                <path id="prefix__Path_6690" d="M897.375 674.417a40.416 40.416 0 0 1 6.325 4.723" class="prefix__cls-59" data-name="Path 6690" transform="translate(-894.037 -664.557)"/>
                <path id="prefix__Path_6691" d="M898.64 677.721a40.5 40.5 0 0 1 6.325 4.723" class="prefix__cls-59" data-name="Path 6691" transform="translate(-894.518 -665.813)"/>
            </g>
            <path id="prefix__Path_6692" d="M948.979 647.658c-8.131-7.091-19.057 18.927-16.27 41.936 0 0 24.4-34.845 16.27-41.936" class="prefix__cls-60" data-name="Path 6692" transform="translate(-907.303 -637.355)"/>
            <path id="prefix__Path_6693" d="M945.915 654.877c-12.8 19.985-15.077 42.3-15.332 54.976" class="prefix__cls-59" data-name="Path 6693" transform="translate(-906.663 -640.551)"/>
            <path id="prefix__Path_6694" d="M934.38 689.127c.094 3.214.3 6.124.544 8.643" data-name="Path 6694" transform="translate(-908.107 -653.574)" style="stroke:#0e7c74;stroke-width:1.244px;fill:none;stroke-miterlimit:10"/>
            <g id="prefix__Group_5391" data-name="Group 5391" transform="translate(4.845)">
                <path id="prefix__Path_6695" d="M917.9 674.826s-24.559-34.735-16.459-41.862 19.146 18.836 16.459 41.862z" class="prefix__cls-60" data-name="Path 6695" transform="translate(-899.806 -631.763)"/>
                <path id="prefix__Path_6696" d="M906.392 640.173c12.892 19.928 15.267 42.23 15.579 54.907" class="prefix__cls-59" data-name="Path 6696" transform="translate(-902.31 -634.961)"/>
            </g>
            <g id="prefix__Group_5392" data-name="Group 5392" transform="translate(19.578 27.305)">
                <path id="prefix__Path_6697" d="M925.209 701.71s15.114-20.772 10.281-25.142-11.713 11.22-10.281 25.142z" class="prefix__cls-58" data-name="Path 6697" transform="translate(-924.125 -675.82)"/>
                <path id="prefix__Path_6698" d="M933.435 680.9c-7.948 11.926-9.565 25.373-9.858 33.025" class="prefix__cls-59" data-name="Path 6698" transform="translate(-923.578 -677.753)"/>
            </g>
            <g id="prefix__Group_5393" data-name="Group 5393" transform="translate(8.306 64.894)">
                <path id="prefix__Path_6699" d="M931.641 738.1l-.14.933-.294 1.983-2.836 19.037h-16.92l-2.836-19.037-.294-1.983-.14-.933z" class="prefix__cls-62" data-name="Path 6699" transform="translate(-906.452 -737.089)"/>
                <path id="prefix__Path_6700" d="M931.587 739.605l-.294 1.983H908.7l-.294-1.983z" data-name="Path 6700" transform="translate(-906.538 -737.661)" style="fill:#88aae2"/>
                <path id="prefix__Path_6701" d="M932.309 737.868a1.4 1.4 0 0 1-1.4 1.4H906.79a1.4 1.4 0 0 1-1.4-1.4 1.4 1.4 0 0 1 1.4-1.4h24.12a1.4 1.4 0 0 1 1.4 1.4" class="prefix__cls-62" data-name="Path 6701" transform="translate(-905.391 -736.469)"/>
            </g>
        </g>
        <g id="prefix__Group_5395" data-name="Group 5395" transform="translate(301.277 145.76)">
            <path id="prefix__Path_6703" d="M504.556 217.871c5.639.462 9.826 1.9 12.948 4.041-2.473-3.333-17.846-12.627-32.807-3.25a30.407 30.407 0 0 0-13.265 33.6 33.167 33.167 0 0 1 1.41-4.337c-.1 4.8.258 10.838 2.711 21.393.021-20.143 2.41-51.064 29.003-51.447z" data-name="Path 6703" transform="translate(-470.39 -214.588)" style="fill:#e56857;fill-rule:evenodd"/>
        </g>
        <g id="prefix__Group_5432" data-name="Group 5432" transform="translate(370.2 146.883)">
            <g id="prefix__Group_5398" data-name="Group 5398" transform="translate(8.942)">
                <g id="prefix__Group_5397" data-name="Group 5397">
                    <g id="prefix__Group_5396" data-name="Group 5396">
                        <path id="prefix__Rectangle_2479" d="M0 0H66.225V2.595H0z" class="prefix__cls-5" data-name="Rectangle 2479"/>
                    </g>
                </g>
            </g>
            <g id="prefix__Group_5401" data-name="Group 5401" transform="translate(0 6.283)">
                <g id="prefix__Group_5400" data-name="Group 5400">
                    <g id="prefix__Group_5399" data-name="Group 5399">
                        <path id="prefix__Rectangle_2480" d="M0 0H75.167V2.595H0z" class="prefix__cls-5" data-name="Rectangle 2480"/>
                    </g>
                </g>
            </g>
            <g id="prefix__Group_5404" data-name="Group 5404" transform="translate(0 12.567)">
                <g id="prefix__Group_5403" data-name="Group 5403">
                    <g id="prefix__Group_5402" data-name="Group 5402">
                        <path id="prefix__Rectangle_2481" d="M0 0H75.167V2.595H0z" class="prefix__cls-5" data-name="Rectangle 2481"/>
                    </g>
                </g>
            </g>
            <g id="prefix__Group_5407" data-name="Group 5407" transform="translate(0 18.851)">
                <g id="prefix__Group_5406" data-name="Group 5406">
                    <g id="prefix__Group_5405" data-name="Group 5405">
                        <path id="prefix__Rectangle_2482" d="M0 0H75.167V2.595H0z" class="prefix__cls-5" data-name="Rectangle 2482"/>
                    </g>
                </g>
            </g>
            <g id="prefix__Group_5410" data-name="Group 5410" transform="translate(0 25.135)">
                <g id="prefix__Group_5409" data-name="Group 5409">
                    <g id="prefix__Group_5408" data-name="Group 5408">
                        <path id="prefix__Rectangle_2483" d="M0 0H75.167V2.595H0z" class="prefix__cls-5" data-name="Rectangle 2483"/>
                    </g>
                </g>
            </g>
            <g id="prefix__Group_5413" data-name="Group 5413" transform="translate(0 31.419)">
                <g id="prefix__Group_5412" data-name="Group 5412">
                    <g id="prefix__Group_5411" data-name="Group 5411">
                        <path id="prefix__Rectangle_2484" d="M0 0H75.167V2.595H0z" class="prefix__cls-5" data-name="Rectangle 2484"/>
                    </g>
                </g>
            </g>
            <g id="prefix__Group_5416" data-name="Group 5416" transform="translate(0 37.702)">
                <g id="prefix__Group_5415" data-name="Group 5415">
                    <g id="prefix__Group_5414" data-name="Group 5414">
                        <path id="prefix__Rectangle_2485" d="M0 0H75.167V2.595H0z" class="prefix__cls-5" data-name="Rectangle 2485"/>
                    </g>
                </g>
            </g>
            <g id="prefix__Group_5419" data-name="Group 5419" transform="translate(0 43.986)">
                <g id="prefix__Group_5418" data-name="Group 5418">
                    <g id="prefix__Group_5417" data-name="Group 5417">
                        <path id="prefix__Rectangle_2486" d="M0 0H75.167V2.595H0z" class="prefix__cls-5" data-name="Rectangle 2486"/>
                    </g>
                </g>
            </g>
            <g id="prefix__Group_5422" data-name="Group 5422" transform="translate(0 50.269)">
                <g id="prefix__Group_5421" data-name="Group 5421">
                    <g id="prefix__Group_5420" data-name="Group 5420">
                        <path id="prefix__Rectangle_2487" d="M0 0H75.167V2.595H0z" class="prefix__cls-5" data-name="Rectangle 2487"/>
                    </g>
                </g>
            </g>
            <g id="prefix__Group_5425" data-name="Group 5425" transform="translate(0 56.554)">
                <g id="prefix__Group_5424" data-name="Group 5424">
                    <g id="prefix__Group_5423" data-name="Group 5423">
                        <path id="prefix__Rectangle_2488" d="M0 0H75.167V2.594H0z" class="prefix__cls-5" data-name="Rectangle 2488"/>
                    </g>
                </g>
            </g>
            <g id="prefix__Group_5428" data-name="Group 5428" transform="translate(0 62.837)">
                <g id="prefix__Group_5427" data-name="Group 5427">
                    <g id="prefix__Group_5426" data-name="Group 5426">
                        <path id="prefix__Rectangle_2489" d="M0 0H75.167V2.595H0z" class="prefix__cls-5" data-name="Rectangle 2489"/>
                    </g>
                </g>
            </g>
            <g id="prefix__Group_5431" data-name="Group 5431" transform="translate(0 69.121)">
                <g id="prefix__Group_5430" data-name="Group 5430">
                    <g id="prefix__Group_5429" data-name="Group 5429">
                        <path id="prefix__Rectangle_2490" d="M0 0H75.167V2.595H0z" class="prefix__cls-5" data-name="Rectangle 2490"/>
                    </g>
                </g>
            </g>
            <path id="prefix__Path_6704" d="M581.748 340.67v-2.6h75.167v2.6" class="prefix__cls-5" data-name="Path 6704" transform="translate(-581.748 -262.67)"/>
        </g>
    </g>
</svg>
