<?xml version="1.0" encoding="utf-8"?>
<!-- Generator: Adobe Illustrator 16.0.0, SVG Export Plug-In . SVG Version: 6.00 Build 0)  -->
<!DOCTYPE svg PUBLIC "-//W3C//DTD SVG 1.0//EN" "http://www.w3.org/TR/2001/REC-SVG-20010904/DTD/svg10.dtd">
<svg version="1.0" id="Layer_1" xmlns="http://www.w3.org/2000/svg" xmlns:xlink="http://www.w3.org/1999/xlink" x="0px" y="0px"
	 width="20px" height="20px" viewBox="0 0 20 20" enable-background="new 0 0 20 20" xml:space="preserve">
<g>
	<g>
		<path fill="#BF32A8" d="M10.337,19.562c-1.403,0-2.358,0.022-3.311-0.01c-0.855-0.027-1.717-0.027-2.556-0.243
			c-1.08-0.276-2.012-0.793-2.734-1.662c-0.708-0.853-1.062-1.846-1.183-2.933c-0.091-0.815-0.124-1.637-0.124-2.457
			c-0.001-1.618-0.011-3.235,0.003-4.853c0.007-0.803,0.029-1.611,0.152-2.408c0.229-1.474,0.905-2.684,2.144-3.54
			c0.747-0.516,1.591-0.796,2.491-0.892c1.945-0.205,3.897-0.109,5.847-0.129c0.832-0.008,1.665-0.003,2.496,0.035
			c0.885,0.041,1.766,0.109,2.606,0.427c0.924,0.349,1.684,0.907,2.27,1.7c0.63,0.853,0.94,1.827,1.02,2.869
			c0.188,2.482,0.092,4.969,0.086,7.456c-0.002,0.761-0.027,1.525-0.176,2.277c-0.221,1.104-0.679,2.078-1.509,2.864
			c-0.674,0.637-1.469,1.031-2.362,1.243c-0.543,0.131-1.095,0.168-1.65,0.202C12.528,19.591,11.209,19.545,10.337,19.562
			 M17.797,10.002c0.004-1.177,0.019-2.354-0.033-3.529c-0.025-0.587-0.056-1.176-0.225-1.746c-0.176-0.592-0.47-1.107-0.927-1.53
			c-0.64-0.592-1.422-0.825-2.261-0.905c-0.897-0.086-1.798-0.088-2.699-0.093C10.114,2.191,8.577,2.18,7.04,2.223
			C6.427,2.24,5.812,2.25,5.203,2.353C4.331,2.5,3.581,2.872,3.027,3.581C2.542,4.201,2.356,4.93,2.28,5.696
			C2.207,6.435,2.204,7.177,2.196,7.918c-0.021,1.859-0.027,3.72,0.028,5.582c0.016,0.538,0.052,1.078,0.181,1.607
			c0.182,0.746,0.552,1.374,1.152,1.856c0.563,0.453,1.23,0.655,1.934,0.742c0.726,0.093,1.459,0.095,2.189,0.1
			c1.903,0.009,3.807,0.032,5.708-0.028c0.488-0.014,0.976-0.041,1.455-0.131c0.759-0.145,1.433-0.445,1.964-1.027
			c0.459-0.503,0.703-1.103,0.831-1.761c0.152-0.783,0.132-1.581,0.153-2.376C17.816,11.657,17.797,10.83,17.797,10.002"/>
		<path fill="#BF32A8" d="M9.971,14.923c-2.667,0.017-4.922-2.192-4.902-4.959c0.019-2.707,2.215-4.888,4.951-4.885
			c2.708,0.003,4.89,2.207,4.901,4.918C14.931,12.715,12.704,14.962,9.971,14.923 M9.997,13.162c1.74-0.002,3.163-1.418,3.155-3.159
			c-0.011-1.758-1.388-3.143-3.158-3.157c-1.74-0.013-3.175,1.431-3.157,3.176C6.856,11.774,8.247,13.146,9.997,13.162"/>
		<path fill="#BF32A8" d="M16.253,4.91c0,0.645-0.518,1.166-1.156,1.165c-0.639,0-1.178-0.531-1.175-1.157
			c0.003-0.655,0.521-1.177,1.167-1.174C15.755,3.745,16.253,4.244,16.253,4.91"/>
	</g>
</g>
</svg>
