<?xml version="1.0" encoding="utf-8"?>
<!-- Generator: Adobe Illustrator 16.0.0, SVG Export Plug-In . SVG Version: 6.00 Build 0)  -->
<!DOCTYPE svg PUBLIC "-//W3C//DTD SVG 1.0//EN" "http://www.w3.org/TR/2001/REC-SVG-20010904/DTD/svg10.dtd">
<svg version="1.0" id="Layer_1" xmlns="http://www.w3.org/2000/svg" xmlns:xlink="http://www.w3.org/1999/xlink" x="0px" y="0px"
	 width="20px" height="20px" viewBox="0 0 20 20" enable-background="new 0 0 20 20" xml:space="preserve">
<g>
	<path fill="#0172B1" d="M17.791,19.876c1.088,0,1.97-0.885,1.97-1.975V2.099c0-1.09-0.882-1.975-1.97-1.975H2.208
		c-1.087,0-1.968,0.883-1.968,1.975v15.803c0,1.09,0.881,1.975,1.968,1.975H17.791z"/>
	<g>
		<path fill="#FFFFFF" d="M5.891,4.512C5.166,4.512,4.694,5,4.694,5.637c0,0.621,0.458,1.123,1.168,1.123
			c0.755,0,1.213-0.501,1.213-1.123C7.058,5,6.616,4.512,5.891,4.512z"/>
		<rect x="4.752" y="7.647" fill="#FFFFFF" width="2.247" height="7.233"/>
		<path fill="#FFFFFF" d="M15.207,14.881v-4.274c0-2.13-1.108-3.122-2.586-3.122c-1.216,0-1.939,0.697-2.235,1.169h-0.045
			l-0.104-1.005h-1.95c0.029,0.651,0.06,1.405,0.06,2.308v4.926h2.247v-4.171c0-0.206,0.016-0.415,0.072-0.562
			c0.164-0.414,0.534-0.843,1.156-0.843c0.812,0,1.138,0.636,1.138,1.568v4.008L15.207,14.881L15.207,14.881z"/>
	</g>
</g>
</svg>
