<?xml version="1.0" encoding="utf-8"?>
<!-- Generator: Adobe Illustrator 24.0.0, SVG Export Plug-In . SVG Version: 6.00 Build 0)  -->
<svg version="1.1" id="Layer_1" xmlns="http://www.w3.org/2000/svg" xmlns:xlink="http://www.w3.org/1999/xlink" x="0px" y="0px"
	 viewBox="0 0 978.1 1004.7" style="enable-background:new 0 0 978.1 1004.7;" xml:space="preserve">
<style type="text/css">
	.st0{fill:#FCF6E4;}
</style>
<path class="st0" d="M598.2,578.3v-29.6c-3.6,0.2-7,1.7-9.5,4.3c-2.7,2.7-4.3,6.3-4.4,10.2l0,0.4
	C584.4,571.3,590.5,577.8,598.2,578.3z M594,802.4c-7.9,0-14.4,6.2-14.9,13.9h29.8C608.3,808.5,601.9,802.4,594,802.4z M663.5,489.6
	c-8.2,0-14.9,6.7-14.9,14.9c0,4,1.6,7.7,4.4,10.5c2.8,2.8,6.6,4.4,10.5,4.4h0c8.2,0,14.9-6.7,14.9-14.9
	C678.4,496.3,671.7,489.6,663.5,489.6z M263.6,473.8h-29.6v29.7h29.6V473.8z M680.3,812.4c1.6,2.3,4.7,2.9,7.1,1.4
	c2.5-1.5,3.2-4.8,1.7-7.3c-0.7-1.2-1.9-2-3.3-2.3c-1.4-0.3-2.8-0.1-4,0.7c-2.5,1.5-3.2,4.8-1.7,7.3L680.3,812.4z M205.9,588.5
	l0,38.5l33.3-19.3L205.9,588.5z M263.6,683.5h-29.7v29.7h29.7V683.5z M594,221.4c-7.9,0-14.4,6.2-14.9,13.9h29.8
	C608.3,227.5,601.9,221.4,594,221.4z M377,276.2c-1.4-0.3-2.8-0.1-4,0.7c-2.5,1.5-3.2,4.8-1.7,7.3l0.2,0.2c1.6,2.3,4.7,2.9,7.1,1.4
	c2.5-1.5,3.2-4.8,1.7-7.3C379.5,277.4,378.4,276.5,377,276.2z M689.9,338.3L670.6,305l-19.2,33.3L689.9,338.3z M458.8,826.9
	l16.7-9.6l-33.3-19.2l0,38.5L458.8,826.9z M689.9,919.3L670.6,886l-19.2,33.3L689.9,919.3z M196.5,656.8c-1.4-0.3-2.8-0.1-4,0.7
	c-1.2,0.7-2,1.9-2.3,3.3c-0.3,1.3-0.1,2.7,0.6,3.9l0.1,0.1l0.1,0.1c0.7,1.1,1.9,1.9,3.2,2.2c1.4,0.3,2.8,0.1,4-0.7
	c2.5-1.5,3.2-4.8,1.7-7.3C199,658,197.8,657.1,196.5,656.8z M507.3,350.1H537v-29.6h-29.6V350.1z M450.4,576.7l-37.2,10l27.2,27.2
	L450.4,576.7z M680.3,231.4c1.6,2.3,4.7,2.9,7.1,1.4c2.5-1.5,3.2-4.8,1.7-7.3c-1.5-2.5-4.8-3.2-7.3-1.7c-2.5,1.5-3.2,4.8-1.7,7.3
	L680.3,231.4z M474,659.9c-1.4-0.3-2.8-0.1-4,0.7c-1.2,0.7-2,1.9-2.3,3.3c-0.3,1.3-0.1,2.7,0.6,3.8l0.1,0.1l0.1,0.1
	c0.7,1.1,1.9,1.9,3.2,2.2c1.4,0.3,2.8,0.1,4-0.7c2.4-1.5,3.2-4.8,1.7-7.3C476.5,661.1,475.4,660.3,474,659.9z M509.4,148H539v-29.6
	h-29.7V148z M359.8,352L359.8,352c8.2,0,14.9-6.7,14.9-14.9c0-8.2-6.7-14.9-14.9-14.9h0c-8.2,0-14.9,6.7-14.9,14.9v0
	C344.9,345.3,351.6,352,359.8,352z M539,699.3h-29.7V729H539V699.3z M261.1,340.3c-8.2,0-14.9,6.7-14.9,14.9v0.8
	c0.4,7.9,6.9,14.2,14.9,14.2h0c8.2,0,14.9-6.7,14.9-14.9S269.3,340.3,261.1,340.3z M746.1,227.5c5.4,2.7,11.9,0.5,14.6-4.8
	s0.5-11.9-4.8-14.6c-2.6-1.3-5.5-1.5-8.3-0.6c-2.7,0.9-5,2.8-6.3,5.4l0,0.1C738.6,218.2,740.8,224.8,746.1,227.5z M716.7,83
	l-19.2,33.3l38.5,0L716.7,83z M830.4,373.1l-19.2,33.3l38.5,0L830.4,373.1z M876.8,132.1v-29.6c-3.6,0.2-7,1.7-9.5,4.3
	c-2.7,2.7-4.2,6.2-4.4,10l0,0.5C863,125.2,869.1,131.6,876.8,132.1z M283.9,299c-1,0-1.9,0.3-2.8,0.8c-1.2,0.8-2,1.9-2.3,3.3
	c-0.3,1.4-0.1,2.8,0.7,4l0,0c1,1.5,2.6,2.4,4.5,2.5c1,0,2-0.3,2.8-0.8c1.2-0.7,2-1.9,2.3-3.3c0.3-1.4,0.1-2.8-0.7-4
	C287.3,299.9,285.6,299,283.9,299z M660.6,626.4c2.8-2.8,4.4-6.6,4.4-10.5c0-8.2-6.7-14.9-14.9-14.9h0c-7.9,0-14.4,6.2-14.9,13.9
	h0.4l-0.4,1.2c0.1,8.1,6.7,14.8,14.9,14.8C654,630.8,657.8,629.2,660.6,626.4z M48.7,548.7v29.7h29.6v-29.7H48.7z M746.5,977.3
	c-1.2,0.7-2,1.9-2.3,3.3c-0.3,1.4-0.1,2.8,0.7,4l0.2,0.3c1.6,2.2,4.6,2.9,7,1.5l0.2-0.2l0.1,0c1.1-0.7,1.8-1.9,2.1-3.1
	c0.3-1.4,0.1-2.8-0.7-4C752.2,976.5,748.9,975.8,746.5,977.3z M862.9,697.8l0,0.5c0,7.9,6.2,14.3,13.9,14.8v-29.6
	C869.3,684,863.2,690.2,862.9,697.8z M746.5,396.3c-2.4,1.5-3.2,4.8-1.7,7.3l0.1,0.2c1.6,2.3,4.7,2.9,7.1,1.4
	c2.5-1.5,3.2-4.8,1.7-7.2C752.2,395.5,748.9,394.8,746.5,396.3z M426.1,470.8l9.9-37.2l-37.2,10L426.1,470.8z M716.7,664l-19.2,33.3
	l38.5,0L716.7,664z M838.3,548.7h-29.6v29.7h29.6V548.7z M475.5,236.3l-33.3-19.2l0,38.5L475.5,236.3z M973.6,184.8
	c-1.2,1.9-2.8,3.8-5.5,3.9l-0.4,0.3l-0.4-0.3c-3.5-0.2-5.1-3.1-6.4-5.3l-10.6-8.9h2.7c5.3,0,7.4,4,9.2,7.2l0.2,0.3l5.2,4.4l5.2-4.3
	l0.3-0.5C954.7,72.2,850.7-7.4,740.5,3c1.9,1.2,3.7,2.8,3.9,5.5l0.3,0.4l-0.3,0.4c-0.2,3.4-3.1,5.1-5.3,6.3l-0.2,0.2l-8.7,10.3
	l0-2.8c0-5.3,3.8-7.3,7.2-9.1l0.4-0.2l4.4-5.2l-4.4-5.2l-0.2-0.1c-0.2-0.1-0.3-0.2-0.5-0.3c-21.2,2.4-41.8,7.8-61.4,16.2l-12.1,5.1
	c5.3,6.9,4.4,16.9-2.2,22.8c-3.1,2.8-7.1,4.3-11.3,4.3h0c-8.3,0-15.4-6.2-16.7-14.3L177.2,231.1l-11,41l-25.5-25.5l-7.1,3
	C47.5,286.1-3.9,370.2,2.5,463.8c8.9,0.4,16.1,7.8,16.1,16.9l0,1H4.5c5.5,36.4,20.1,70,42.2,98.5v-33.6h33.6v33.7H46.7
	c12.4,15.9,27.1,30.3,44,42.6l414.6,302.5v-26H539v33.7h-23.2L554,961c62,45.2,141.1,54.3,211.7,24.3c70.6-30,119-93.2,129.6-169.2
	l6.4-46.4l-1.3,0c-3.7,0-5.5-3.1-6.7-5.4l-10.5-8.9h2.7c5.3,0,7.3,3.8,9.2,7.2l0.2,0.4l6.6,5.5l56.2-406.1c-0.2-0.8-0.3-1.5-0.3-2.3
	l0-2.7l0.8,1L973.9,248C976.9,227,976.8,205.7,973.6,184.8z M47.7,408.5l22.7-39.4l22.7,39.3l-22.7,0h0L47.7,408.5z M137.8,512.4
	c-1.3,2.3-3,5.4-6.7,5.4h-1.8l0,0l-2.8,0c-3.7,0-5.5-3.1-6.7-5.4l-10.1-8.5l-10,8.5c-1.3,2.3-3,5.4-6.7,5.4h-4.5
	c-3.7,0-5.5-3.1-6.7-5.4l-10.5-8.9l2.7,0c5.3,0,7.4,4,9.2,7.2l0.2,0.4l7.4,6.3l7.4-6.3l0.2-0.4c1.7-3.2,3.9-7.2,9.2-7.2h2.7l0,0h1.8
	c5.3,0,7.4,4,9.2,7.2l0.2,0.4l7.4,6.3l7.4-6.3l0.2-0.3c1.7-3.2,3.9-7.2,9.2-7.2h2.7L137.8,512.4z M479.5,236.3L440.1,259l0-45.4
	L479.5,236.3z M349.3,159.7c5.3,0,7.4,4,9.2,7.2l0.2,0.3l5.2,4.4l5.2-4.3l0.2-0.4c1.8-3.3,3.8-7,8.8-7.1l0.4-0.3l0.4,0.3
	c5,0.2,7.1,4.1,8.8,7.2l0.2,0.4l5.2,4.4l5.1-4.3l0.3-0.5c1.8-3.3,3.9-7.1,9.1-7.1l2.7,0l-10.5,8.9c-1,1.8-2.3,4.1-4.5,5l0.5,0.4
	l-2.8,0c-0.1,0-0.2,0-0.3,0h-2.4l0.5-0.4c-2.2-0.9-3.5-3.2-4.5-4.9l-7.8-6.6l-7.8,6.6c-1,1.8-2.2,4.1-4.5,5l0.5,0.4l-2.8,0
	c-0.1,0-0.2,0-0.3,0h-2.4l0.5-0.4c-2.2-0.9-3.5-3.1-4.5-4.9l-10.6-8.9H349.3z M438.9,430.8l-11.7,43.9L395,442.6L438.9,430.8z
	 M353.7,676.2c3.2-3.2,7.4-5,11.9-5l0,0h0.1c9.2,0,16.8,7.5,16.9,16.7v1.2h-33.7l0-1C348.8,683.6,350.5,679.4,353.7,676.2z
	 M350.9,488.6c0-4.5,1.8-8.8,5-11.9c3.2-3.2,7.4-4.9,11.9-4.9h0l1,0l0,1v32.7l-1,0h0c-4.5,0-8.7-1.7-11.9-4.9
	C352.7,497.3,350.9,493.1,350.9,488.6z M379.7,287.5L379.7,287.5c-1.2,0.8-2.5,1.1-3.9,1.1c-2.4,0-4.8-1.2-6.2-3.4l-1-1.5h0.2
	c-1.1-3.1,0.1-6.7,3-8.5c1.6-1,3.6-1.4,5.5-0.9s3.5,1.6,4.5,3.2C384.1,280.9,383.1,285.4,379.7,287.5z M197.8,387.7l0.1,0.1
	c0.7-4.2,4.2-6.1,7.1-7.6l0.4-0.2l4.3-5.1l-4.3-5.1l-0.4-0.2c-3.2-1.7-7.2-3.9-7.2-9.2v-2.7l8.9,10.5c2.2,1.2,5.2,2.9,5.4,6.4
	l0.3,0.4l-0.3,0.4c-0.2,3.5-3.1,5.1-5.4,6.4l-6.6,7.8l6.6,7.8c2.2,1.2,5.2,2.9,5.4,6.4l0.3,0.4l-0.3,0.4c-0.2,3.5-3.1,5.1-5.4,6.4
	l-8.9,10.5l0-2.7c0-5.3,4-7.4,7.2-9.2l0.4-0.2l4.4-5.2l-4.3-5.2l-0.4-0.2c-2.8-1.5-5.9-3.2-6.9-6.8l-0.3,0.3l0-2c0-0.2,0-0.5,0-0.7
	V387.7z M199.2,668.1c-1.2,0.7-2.5,1.1-3.8,1.1c-0.5,0-1.1-0.1-1.6-0.2c-1.7-0.4-3.2-1.4-4.2-2.7h0l-0.3-0.5c-1-1.6-1.4-3.6-0.9-5.5
	s1.6-3.5,3.2-4.5c3.4-2.1,7.9-1.1,10,2.3C203.6,661.5,202.6,666,199.2,668.1z M203.9,585.1l39.4,22.7l-39.3,22.7L203.9,585.1z
	 M265.6,715.1h-33.7v-33.7h33.7V715.1z M265.6,505.4h-33.6v-33.7h33.6V505.4z M261.1,372.1L261.1,372.1c-9.3,0-16.9-7.6-16.9-16.9
	l0-1l0,0c0.5-8.9,7.9-15.9,16.9-15.9c9.3,0,16.9,7.6,16.9,16.9C278,364.6,270.4,372.1,261.1,372.1z M291,305.9
	c-0.4,1.9-1.6,3.5-3.2,4.5c-1.2,0.7-2.5,1.1-3.9,1.1h0c-2.5,0-4.8-1.3-6.1-3.4c-1-1.6-1.4-3.6-0.9-5.5c0.4-1.9,1.6-3.5,3.2-4.5
	c3.4-2.1,7.9-1.1,10,2.3C291,302,291.4,304,291,305.9z M342.9,337.1c0-4.5,1.8-8.8,5-12c3.2-3.2,7.4-5,12-5h0c4.5,0,8.8,1.8,12,5
	s5,7.4,5,12c0,9.3-7.6,16.9-16.9,16.9h0C350.5,354,342.9,346.4,342.9,337.1L342.9,337.1z M399.6,749.5c-1,1.8-2.2,4-4.5,5l0.5,0.4
	l-2.7,0c-0.1,0-0.2,0-0.3,0h-2.4l0.5-0.4c-2.2-0.9-3.5-3.1-4.5-4.9l-7.9-6.6l-7.8,6.6c-1,1.8-2.2,4-4.5,5l0.5,0.4h-5.5l0.5-0.4
	c-2.2-0.9-3.5-3.1-4.5-4.9l-10.6-8.9h2.7c5.3,0,7.4,4,9.2,7.2l0.2,0.3l5.2,4.4l5.2-4.3l0.2-0.4c1.8-3.3,3.8-7,8.8-7.2l0,0l0.7,0
	c5,0.2,7.1,4.1,8.8,7.2l0.2,0.3l5.2,4.4l5.1-4.3l0.2-0.4c1.8-3.4,3.9-7.2,9.1-7.2h2.7L399.6,749.5z M409.4,585.7l43.9-11.8
	l-11.7,43.9l-16.1-16l0,0L409.4,585.7z M440.1,840l0-45.4l39.4,22.7L440.1,840z M476.7,671.2L476.7,671.2c-1.2,0.7-2.5,1.1-3.8,1.1
	c-0.5,0-1.1-0.1-1.6-0.2c-1.7-0.4-3.2-1.4-4.2-2.7h0l-0.3-0.5c-1-1.6-1.4-3.6-0.9-5.5c0.4-1.9,1.6-3.5,3.2-4.5s3.6-1.4,5.5-0.9
	c1.9,0.4,3.5,1.6,4.5,3.2C481.1,664.6,480.1,669.1,476.7,671.2z M507.4,116.3H541V150h-33.7V116.3z M505.3,318.4H539v33.6h-33.6
	V318.4z M541,731h-33.7v-33.7H541V731z M546.1,420c2.2,1.2,5.2,2.9,5.4,6.4l0.3,0.4l-0.3,0.4c-0.2,3.5-3.1,5.1-5.4,6.4l-8.9,10.5
	l0-2.7c0-5.3,3.8-7.3,7.2-9.2l0.4-0.2l4.4-5.2l-4.4-5.2l-0.4-0.2c-2.7-1.4-5.9-3.2-6.9-6.8l-0.3,0.3l0-2.1c0-0.2,0-0.4,0-0.6v-1h0.1
	c0.5-4.6,4.2-6.6,7.2-8.2l0.4-0.2l4.3-5.2l-4.4-5.2l-0.4-0.2c-3.4-1.8-7.2-3.9-7.2-9.2v-1h1.5l7.4,8.8c2.2,1.2,5.2,2.9,5.3,6.4
	l0.3,0.4l-0.3,0.4c-0.2,3.5-3.1,5.1-5.4,6.4l-6.6,7.8L546.1,420z M885.9,174.5c5.3,0,7.3,3.8,9.2,7.2l0.2,0.4l7.4,6.3l7.4-6.2
	l0.2-0.4c1.7-3.2,3.9-7.2,9.2-7.2h2.7l-10.5,8.9c-1.3,2.3-3,5.4-6.7,5.4h-1.8l0,0l-2.8,0c-3.7,0-5.5-3.1-6.7-5.4l-10.5-8.9H885.9z
	 M865.9,105.4c3.2-3.2,7.4-4.9,11.9-4.9h0l1,0l0,1v32.7l-1,0h0c-9,0-16.3-7-16.8-15.8h0l0-1C860.9,112.8,862.7,108.6,865.9,105.4z
	 M830.4,369.1l22.7,39.3l-22.7,0h0l-22.7,0L830.4,369.1z M746.9,205.5c3.3-1.1,6.7-0.8,9.8,0.7c6.3,3.2,8.9,10.9,5.7,17.3
	c-2.3,4.5-6.8,7.1-11.5,7.1c-1.9,0-3.9-0.4-5.7-1.4c-6.3-3.1-8.8-10.7-5.8-17v-0.8l0.4,0C741.3,208.6,743.9,206.6,746.9,205.5z
	 M705.4,98.6L716.7,79l22.7,39.3l-45.4,0L705.4,98.6z M680.7,222.2L680.7,222.2c3.4-2.1,7.9-1.1,10,2.3c2.1,3.4,1.1,7.9-2.3,10
	c-1.2,0.7-2.5,1.1-3.8,1.1c-2.4,0-4.8-1.2-6.2-3.4l-1-1.5h0.2C676.7,227.6,677.8,224,680.7,222.2z M680.7,803.2L680.7,803.2
	c3.4-2.1,7.9-1.1,10,2.3c2.1,3.4,1.1,7.9-2.3,10c-1.2,0.7-2.5,1.1-3.8,1.1c-2.4,0-4.8-1.2-6.2-3.4l-1-1.5h0.2
	C676.7,808.6,677.8,805,680.7,803.2z M663.5,521.4L663.5,521.4c-4.5,0-8.8-1.8-12-5c-3.2-3.2-5-7.4-5-12c0-9.3,7.6-16.9,16.9-16.9
	s16.9,7.6,16.9,16.9C680.4,513.8,672.8,521.4,663.5,521.4z M610.9,818.3h-33.8v-1c0-9.3,7.6-16.9,16.9-16.9s16.9,7.6,16.9,16.9
	V818.3z M582.3,563.5c0-4.5,1.8-8.7,5-11.9c3.2-3.2,7.4-4.9,11.9-4.9h0l1,0v33.7l-1,0h0c-9,0-16.3-7-16.9-15.8h0L582.3,563.5z
	 M610.9,237.3h-33.8v-1c0-9.3,7.6-16.9,16.9-16.9s16.9,7.6,16.9,16.9V237.3z M622.3,735.2c2.2,1.2,5.2,2.9,5.4,6.4l0.3,0.4l-0.3,0.4
	c-0.2,3.4-3.1,5.1-5.3,6.3l-8.9,10.6v-2.7c0-5.3,4-7.4,7.2-9.2l0.3-0.2l4.4-5.2l-4.4-5.2l-0.4-0.2c-2.7-1.4-5.9-3.2-6.9-6.8
	l-0.3,0.4l0-2.3l-1.4-1.4l1.5,0c0.5-4.5,4-6.5,7.2-8.2l0.3-0.2l0.2-0.3h0.1l4.2-4.9l-4.4-5.2l-0.4-0.2c-3.1-1.7-7-3.8-7.2-8.8l0,0
	v-0.1l-2.5-4.8l4.5,4.1l0,0.1l6.9,8.2c2.2,1.2,5.1,2.9,5.3,6.3l0.3,0.4l-0.3,0.4c-0.2,3.5-3.1,5.1-5.4,6.4l-6.6,7.8L622.3,735.2z
	 M627.6,161.3c-0.2,3.4-3.1,5.1-5.3,6.3l-8.9,10.6v-2.7c0-5.3,4-7.4,7.2-9.2l0.3-0.2l4.4-5.2l-4.4-5.2l-0.4-0.2
	c-2.7-1.4-5.9-3.2-6.9-6.8l-0.3,0.4l0-2.3l-1.4-1.4l1.5,0c0.5-4.6,4.2-6.6,7.2-8.2l0.3-0.2l0.2-0.3h0.1l4.2-4.9l-4.4-5.2l-0.4-0.2
	c-3.1-1.7-7-3.8-7.2-8.8l0,0v-0.1l-2.7-5.3l4.6,4.7l6.9,8.2c2.2,1.2,5.1,2.9,5.3,6.3l0.3,0.4l-0.3,0.4c-0.2,3.4-3.1,5.1-5.3,6.3
	l-0.1,0.1l-6.5,7.8l6.6,7.8c2.2,1.2,5.2,2.9,5.4,6.4l0.3,0.4L627.6,161.3z M633.2,616.8L633.2,616.8l0-1c0-9.3,7.6-16.9,16.9-16.9h0
	c9.3,0,16.9,7.6,16.9,16.9c0,4.5-1.8,8.8-5,12c-3.2,3.2-7.4,5-12,5C641.1,632.8,633.7,625.7,633.2,616.8z M648,921.3l22.7-39.4
	l22.7,39.3L648,921.3z M648,340.3l22.7-39.4l22.7,39.3L648,340.3z M716.7,660l22.7,39.3l-45.4,0L716.7,660z M737.7,555.6l-0.4-0.2
	c-3.2-1.7-7.2-3.9-7.2-9.2v-2.7l8.9,10.5c2.2,1.2,5.2,2.9,5.4,6.4l0.3,0.4l-0.3,0.4c-0.2,3.5-3.1,5.1-5.4,6.4l-6.6,7.8l6.6,7.8
	c2.2,1.2,5.2,2.9,5.4,6.4l0.3,0.4l-0.3,0.4c-0.2,3.5-3.1,5.1-5.4,6.4l0,0l-8.9,10.5l0-2.7c0-5.3,4-7.4,7.2-9.2l0.4-0.2l4.4-5.2
	l-4.4-5.2l-0.4-0.2c-2.7-1.5-5.9-3.2-6.9-6.8l-0.3,0.4l0-2.3l-1.4-1.4l1.5,0c0.5-4.6,4.2-6.6,7.2-8.2l0.4-0.2l4.4-5.2L737.7,555.6z
	 M744.8,481.7l0-1c0.1-9.3,7.7-16.8,16.9-16.8c0,0,0.1,0,0.1,0h0c9.2,0.1,16.7,7.6,16.8,16.8l0,1H744.8z M762.5,804.5
	c-2.3,4.5-6.8,7.1-11.5,7.1c-1.9,0-3.9-0.4-5.7-1.4c-6.3-3.1-8.8-10.7-5.8-17v-0.8l0.4,0c3.3-5.9,10.8-8.3,17-5.2
	C763.1,790.4,765.6,798.2,762.5,804.5z M753.1,406.9c-1.2,0.7-2.5,1.1-3.8,1.1c-2.4,0-4.8-1.2-6.2-3.4l-1-1.5h0.2
	c-1-3.1,0.1-6.7,3-8.5l0,0c3.4-2.1,7.9-1.1,10,2.3C757.5,400.3,756.5,404.8,753.1,406.9z M756.4,983.4c-0.4,1.9-1.5,3.4-3.1,4.5
	l-0.1,0.1c0,0,0,0,0,0l-0.2,0.1c-1.1,0.6-2.4,1-3.6,1c-2.4,0-4.8-1.2-6.2-3.4l-1-1.5h0.2c-0.4-1.3-0.5-2.6-0.2-3.9
	c0.4-1.9,1.6-3.5,3.2-4.5c3.4-2.1,7.9-1.1,10,2.3C756.5,979.5,756.8,981.5,756.4,983.4z M789.3,865.2c-1.3,2.3-3,5.4-6.7,5.4H778
	c-3.7,0-5.5-3.1-6.7-5.4l-10.1-8.5l-10,8.5c-1.3,2.3-3,5.4-6.7,5.4h-2.7l0,0l-1.8,0h0c-3.7,0-5.5-3-6.7-5.4l-10.5-8.9h2.7
	c5.3,0,7.4,4,9.2,7.2l0.2,0.4l7.4,6.3l7.4-6.3l0.2-0.4c1.7-3.2,3.9-7.2,9.2-7.2h2.7l0,0h1.8c5.3,0,7.4,4,9.2,7.2l0.2,0.4l7.4,6.3
	l7.4-6.3l0.2-0.4c1.7-3.2,3.9-7.2,9.2-7.2h2.7L789.3,865.2z M789.3,284.1c-1.3,2.3-3,5.4-6.7,5.4H778c-3.7,0-5.5-3.1-6.7-5.4
	l-10.1-8.5l-10.1,8.5c-1.3,2.3-3,5.4-6.7,5.4h-2.7l0,0l-1.8,0h0c-3.7,0-5.5-3-6.7-5.4l-10.5-8.9h2.7c5.3,0,7.4,4,9.2,7.2l0.2,0.4
	l7.4,6.3l7.4-6.3l0.2-0.4c1.8-3.4,3.9-7.2,9.2-7.2h4.5c5.3,0,7.4,4,9.2,7.2l0.2,0.4l7.4,6.3l7.4-6.3l0.2-0.4
	c1.7-3.2,3.9-7.2,9.2-7.2h2.7L789.3,284.1z M840.3,580.3h-33.6v-33.7h33.6V580.3z M878.8,715.2l-1,0h0c-9,0-16.3-7-16.8-15.8h0l0-1
	c0-9.3,7.6-16.8,16.9-16.8h0l1,0l0,1V715.2z M897.8,512.4c-1.3,2.3-3,5.3-6.7,5.4l-2.7,0l0,0h-1.8c-3.7,0-5.5-3.1-6.7-5.4l-10.1-8.5
	l-10.1,8.5c-1.3,2.3-3,5.4-6.7,5.4h-4.5c-3.7,0-5.5-3.1-6.7-5.4l-10.5-8.9l2.7,0c5.3,0,7.4,4,9.2,7.2l0.2,0.4l7.4,6.3l7.4-6.3
	l0.2-0.4c1.8-3.4,3.9-7.2,9.2-7.2h1.8l0,0l2.7,0c5.3,0,7.4,4,9.2,7.2l0.2,0.4l7.4,6.3l7.4-6.3l0.2-0.3c1.7-3.2,3.9-7.2,9.2-7.2h2.7
	L897.8,512.4z M926.3,272.1L894.1,240l43.9-11.8L926.3,272.1z M537,901.4h-29.6v26.7l4,2.9H537V901.4z M925.2,268.2l5-18.6v0l5-18.6
	L898,241L925.2,268.2z M366.8,503.4v-29.6c-3.6,0.2-7,1.7-9.5,4.3c-2.8,2.8-4.4,6.5-4.4,10.5c0,4,1.6,7.7,4.4,10.5
	C359.8,501.7,363.2,503.2,366.8,503.4z M70.4,373.1l-19.2,33.3l38.5,0L70.4,373.1z M761.9,465.9c-7.9-0.1-14.4,6-15,13.8h29.7
	C776,472.1,769.6,466,761.9,465.9z M741.3,793.8L741.3,793.8c-2.7,5.4-0.5,12,4.8,14.6c2.6,1.3,5.5,1.5,8.3,0.6
	c2.8-0.9,5-2.8,6.3-5.4c2.7-5.4,0.5-11.9-4.8-14.6C750.5,786.4,744,788.5,741.3,793.8z M650.1,49.8L650.1,49.8
	c3.7,0,7.2-1.4,9.9-3.8c6.1-5.5,6.6-14.9,1.2-21l-0.2-0.2l-25.8,10.9l0,0.3C635.8,43.7,642.3,49.7,650.1,49.8z M365.7,673.1h-0.1
	l0,0c-4,0-7.7,1.6-10.5,4.4c-2.5,2.6-4,5.9-4.2,9.5h29.6C380,679.3,373.5,673.1,365.7,673.1z M1.8,465.8l-0.1,0
	c0.4,4.6,0.9,9.3,1.5,13.9h13.5C16.1,472,9.6,465.9,1.8,465.8z M175.2,230.8L141.9,245l23.3,23.3L175.2,230.8z"/>
</svg>
